<?xml version="1.0" encoding="UTF-8"?>
<svg version="1.1" xmlns="http://www.w3.org/2000/svg" width="1024" height="1024">
<path d="M0 0 C8.53014194 -0.07063736 17.06015449 -0.12337106 25.59051991 -0.15543652 C29.55483909 -0.17085422 33.51895316 -0.19163238 37.4831543 -0.22631836 C106.11618889 -0.81027418 175.07236997 16.1236473 233 54 C234.05574219 54.67289063 235.11148438 55.34578125 236.19921875 56.0390625 C251.49063287 65.96112827 266.10131495 77.31407059 279.45703125 89.703125 C281.98792717 92.04985519 281.98792717 92.04985519 284.82421875 94.171875 C285.90123047 95.07679688 285.90123047 95.07679688 287 96 C287 96.66 287 97.32 287 98 C287.56074219 98.23460937 288.12148438 98.46921875 288.69921875 98.7109375 C296.3559081 103.00076345 302.34239807 111.36384665 308 118 C308.91433619 119.03996756 309.82979776 120.07894626 310.74609375 121.1171875 C317.24077026 128.5188067 323.2310476 136.1104806 328.79101562 144.23779297 C329.98777434 145.98217996 331.20379228 147.71186609 332.421875 149.44140625 C338.27945114 157.87846546 343.25271802 166.69258347 348.06591797 175.76367188 C348.54947754 176.67310547 349.03303711 177.58253906 349.53125 178.51953125 C349.95986328 179.33526611 350.38847656 180.15100098 350.83007812 180.99145508 C351.96332878 183.13340526 351.96332878 183.13340526 354 185 C353.67 185.66 353.34 186.32 353 187 C353.66 187.33 354.32 187.66 355 188 C373.21357367 219.55000881 381.94025319 260.31519797 386 296 C386.0942627 296.74419189 386.18852539 297.48838379 386.28564453 298.25512695 C387.42147217 308.47452783 387.24395626 318.7938855 387.25 329.0625 C387.25101212 330.60508484 387.25101212 330.60508484 387.25204468 332.17883301 C387.23557076 347.99317434 386.68144023 363.38074033 384 379 C383.82307617 380.05944824 383.64615234 381.11889648 383.46386719 382.21044922 C373.44607705 440.97629411 349.99200001 498.37935998 311 544 C310.03113225 545.14312938 309.06238963 546.28636481 308.09375 547.4296875 C305.08373925 550.97166455 302.04765249 554.49039196 299 558 C297.77023437 559.41925781 297.77023437 559.41925781 296.515625 560.8671875 C292.67431798 565.22508409 288.77408698 569.24341016 284.328125 572.98046875 C282.49518026 574.57045605 280.73554606 576.18643188 278.984375 577.86328125 C261.05071995 595.0077506 240.50601828 609.42515017 219.03564453 621.81420898 C217.47671919 622.7223045 215.92732782 623.64678471 214.38232422 624.57836914 C206.80073045 629.10736393 199.04471467 633.05085346 191 636.6875 C190.34536774 636.98414551 189.69073547 637.28079102 189.01626587 637.58642578 C131.28976615 663.54310438 131.28976615 663.54310438 106 662 C106 662.66 106 663.32 106 664 C105.28199219 664.04898438 104.56398438 664.09796875 103.82421875 664.1484375 C97.91930864 664.57494408 92.03973069 665.08691972 86.15551758 665.73535156 C15.07879358 673.55501753 -55.9987558 661.57469454 -119.625 628.69140625 C-123.04114567 626.97937954 -126.47881598 625.48010554 -130 624 C-132.22496795 622.88751603 -134.0115323 621.49335274 -136 620 C-137.30626825 619.15214112 -138.62317389 618.32048842 -139.94921875 617.50390625 C-160.59277452 604.69233182 -179.79627193 590.69704097 -197.64453125 574.171875 C-199.81154967 572.17376183 -202.01642518 570.23550156 -204.25 568.3125 C-211.99313993 561.5612499 -211.99313993 561.5612499 -215 558 C-215 557.34 -215 556.68 -215 556 C-215.66 556 -216.32 556 -217 556 C-218.33984375 554.70703125 -218.33984375 554.70703125 -219.9375 552.8125 C-220.56140625 552.07644531 -221.1853125 551.34039063 -221.828125 550.58203125 C-222.90320313 549.30392578 -222.90320313 549.30392578 -224 548 C-224.81984375 547.05511719 -225.6396875 546.11023438 -226.484375 545.13671875 C-259.02171587 507.5374819 -292.34922769 453.94844501 -297.5625 403.34375 C-297.706875 402.2403125 -297.85125 401.136875 -298 400 C-298.66 399.67 -299.32 399.34 -300 399 C-300.27920005 396.96925586 -300.53863643 394.93463716 -300.72265625 392.89306641 C-301.04082174 389.57417466 -301.48295105 386.28343636 -301.9375 382.98046875 C-302.11023438 381.71009766 -302.28296875 380.43972656 -302.4609375 379.13085938 C-302.81873998 376.51345643 -303.17810123 373.89626607 -303.5390625 371.27929688 C-305.28799799 358.37763466 -306.2387102 345.71190608 -306.25 332.6875 C-306.25067474 331.97745819 -306.25134949 331.26741638 -306.25204468 330.53585815 C-306.21697936 306.95132179 -303.49793271 283.8860556 -298.57373047 260.81445312 C-297.9945209 257.9731221 -297.51136394 255.1258198 -297.03515625 252.265625 C-296.32856569 248.31961555 -295.32939714 244.77385039 -293.82568359 241.06494141 C-292.87506375 238.68754855 -292.05484156 236.2821355 -291.23828125 233.85546875 C-286.99168522 221.32872798 -282.39127361 209.07902017 -277 197 C-276.66419922 196.23800293 -276.32839844 195.47600586 -275.98242188 194.69091797 C-267.17176228 174.83349685 -255.95137507 156.4172095 -243 139 C-242.57122559 138.41959961 -242.14245117 137.83919922 -241.70068359 137.24121094 C-238.87495721 133.43315048 -235.97071557 129.69589604 -233 126 C-232.58411621 125.47970215 -232.16823242 124.9594043 -231.73974609 124.42333984 C-224.95873959 116.02084408 -217.50064196 108.31749625 -209.875 100.6875 C-209.40162201 100.213125 -208.92824402 99.73875 -208.44052124 99.25 C-200.37719372 91.18859686 -200.37719372 91.18859686 -198 90 C-198.33 89.34 -198.66 88.68 -199 88 C-198.31035156 87.78472656 -197.62070312 87.56945312 -196.91015625 87.34765625 C-193.15354158 85.6080159 -190.49777216 83.1868104 -187.4375 80.4375 C-173.33798674 68.08520462 -157.90148269 57.23488116 -141.69604492 47.81640625 C-139.19658872 46.3589894 -137.05629062 45.05629062 -135 43 C-133.80578459 42.34259975 -132.58534688 41.73208649 -131.3515625 41.15234375 C-130.60438965 40.79914063 -129.8572168 40.4459375 -129.08740234 40.08203125 C-128.27480957 39.70433594 -127.4622168 39.32664063 -126.625 38.9375 C-125.77502441 38.54046875 -124.92504883 38.1434375 -124.04931641 37.734375 C-122.25731387 36.8997527 -120.46415481 36.0676096 -118.66992188 35.23779297 C-116.16542639 34.07669274 -113.66844154 32.90067871 -111.171875 31.72265625 C-77.23415867 15.87949629 -37.75097189 2.76757984 0 2 C0 1.34 0 0.68 0 0 Z M20.3125 100.9375 C18.68924805 101.06801758 18.68924805 101.06801758 17.03320312 101.20117188 C12.15602994 101.17768901 12.15602994 101.17768901 8 103 C6.31347342 103.08479743 4.62551103 103.14079614 2.9375 103.1875 C-36.81478908 105.94868436 -79.13865004 127.28035635 -110.11376953 151.54882812 C-111.4735443 152.59497118 -112.85205997 153.61691295 -114.24169922 154.62304688 C-114.97533691 155.15478516 -115.70897461 155.68652344 -116.46484375 156.234375 C-117.47792603 156.95705566 -117.47792603 156.95705566 -118.51147461 157.69433594 C-119.24829468 158.34063965 -119.24829468 158.34063965 -120 159 C-120 159.66 -120 160.32 -120 161 C-120.58177002 161.25724854 -121.16354004 161.51449707 -121.76293945 161.77954102 C-124.19883526 163.1084773 -125.82978378 164.57114431 -127.79296875 166.52734375 C-128.50114746 167.23133301 -129.20932617 167.93532227 -129.93896484 168.66064453 C-130.68098145 169.41200684 -131.42299805 170.16336914 -132.1875 170.9375 C-132.95271973 171.7094873 -133.71793945 172.48147461 -134.50634766 173.27685547 C-140.0603982 178.93255495 -145.22274212 184.66590762 -150 191 C-150.41910645 191.54269531 -150.83821289 192.08539063 -151.27001953 192.64453125 C-188.08410003 240.37187672 -203.13163456 300.2315444 -196.41992188 359.80273438 C-194.86906297 371.61090198 -193.19540037 383.99290086 -188.69775391 395.078125 C-187.93395028 397.18192561 -187.46694351 399.24532164 -187.01953125 401.4375 C-182.0496275 425.19556899 -167.70914201 449.04083661 -153 468 C-152.23171875 468.99773437 -151.4634375 469.99546875 -150.671875 471.0234375 C-138.99499715 485.68253955 -125.77433084 499.47724129 -111 511 C-109.57880859 512.11181641 -109.57880859 512.11181641 -108.12890625 513.24609375 C-76.12015791 537.77338166 -30.3659767 561.78792337 11 561 C11.33 561.33 11.66 561.66 12 562 C18.46869433 563.03048812 25.02203958 563.15899627 31.55859375 563.16796875 C32.42839371 563.17129715 33.29819366 563.17462555 34.1943512 563.17805481 C36.01864093 563.18307663 37.84293969 563.18546462 39.66723633 563.18530273 C42.42740242 563.18749199 45.18716977 563.20570629 47.94726562 563.22460938 C56.88737421 563.25280636 65.2408302 562.95878515 74 561 C76.4558377 560.70740019 78.91417474 560.43466898 81.375 560.1875 C125.70984461 554.99440434 167.59661103 533.28836741 201.08984375 504.48046875 C202.97827134 502.87086939 204.90708792 501.30706852 206.87890625 499.80078125 C207.57886719 499.20652344 208.27882813 498.61226562 209 498 C209 497.34 209 496.68 209 496 C209.5775 495.7525 210.155 495.505 210.75 495.25 C213.32939979 493.81700012 215.06121592 492.21575324 217 490 C217 489.34 217 488.68 217 488 C217.99 487.67 218.98 487.34 220 487 C222.76965404 484.03210896 225.22693462 480.81159183 227.73095703 477.61767578 C228.97756698 476.02859584 230.23626594 474.4497029 231.49609375 472.87109375 C258.12406329 439.22316508 274.77293425 397.60789154 278.6875 354.875 C278.75037201 354.20091095 278.81324402 353.5268219 278.87802124 352.83230591 C279.92134949 341.52733359 280.57145225 330.34609222 280 319 C279.93619141 317.71319336 279.93619141 317.71319336 279.87109375 316.40039062 C278.11816791 285.36461393 269.45973453 254.49899137 255 227 C254.47792969 225.97519531 253.95585938 224.95039063 253.41796875 223.89453125 C245.72994745 209.11264487 236.03966644 193.66235495 224 182 C222.99280647 180.83953789 221.99343925 179.67225832 221 178.5 C216.27571729 173.06052737 211.12636828 168.05571389 206 163 C205.28457031 162.24332031 204.56914063 161.48664063 203.83203125 160.70703125 C201.59530155 158.62291424 199.9500504 158.54343034 197 158 C196.34 157.01 195.68 156.02 195 155 C193.515 155.495 193.515 155.495 192 156 C192.11730469 155.26394531 192.23460937 154.52789062 192.35546875 153.76953125 C192.27539159 150.77963058 192.27539159 150.77963058 189.61328125 148.82421875 C188.52402344 148.11910156 187.43476562 147.41398437 186.3125 146.6875 C185.42618896 146.10730103 185.42618896 146.10730103 184.52197266 145.51538086 C182.69206432 144.32581894 180.84727974 143.16234453 179 142 C177.98035156 141.33742188 176.96070313 140.67484375 175.91015625 139.9921875 C146.74808293 121.45156431 107.32270859 102.51686265 72 103 C71.34 102.67 70.68 102.34 70 102 C66.05701246 101.49752714 62.08746096 101.24493232 58.125 100.9375 C56.50078125 100.80118164 56.50078125 100.80118164 54.84375 100.66210938 C43.22633015 99.74020195 31.91610056 99.9231741 20.3125 100.9375 Z " fill="#7967FD" transform="translate(472,128)"/>
<path d="M0 0 C2.04236621 3.06354932 2.25292339 3.69703277 2.2746582 7.15063477 C2.28404419 7.98838943 2.29343018 8.8261441 2.30310059 9.68928528 C2.30233521 10.5974852 2.30156982 11.50568512 2.30078125 12.44140625 C2.30638062 13.38799606 2.31197998 14.33458588 2.31774902 15.30986023 C2.32971195 18.39423296 2.32336298 21.47812729 2.3125 24.5625 C2.30976578 26.13505554 2.30976578 26.13505554 2.30697632 27.73937988 C2.26002759 43.69216013 1.70462896 59.24566709 -1 75 C-1.17692383 76.05944824 -1.35384766 77.11889648 -1.53613281 78.21044922 C-11.55392295 136.97629411 -35.00799999 194.37935998 -74 240 C-74.96886775 241.14312938 -75.93761037 242.28636481 -76.90625 243.4296875 C-79.91626075 246.97166455 -82.95234751 250.49039196 -86 254 C-87.22976563 255.41925781 -87.22976563 255.41925781 -88.484375 256.8671875 C-92.32568202 261.22508409 -96.22591302 265.24341016 -100.671875 268.98046875 C-102.50481974 270.57045605 -104.26445394 272.18643188 -106.015625 273.86328125 C-123.94928005 291.0077506 -144.49398172 305.42515017 -165.96435547 317.81420898 C-167.52328081 318.7223045 -169.07267218 319.64678471 -170.61767578 320.57836914 C-178.19926955 325.10736393 -185.95528533 329.05085346 -194 332.6875 C-194.65463226 332.98414551 -195.30926453 333.28079102 -195.98373413 333.58642578 C-253.71023385 359.54310438 -253.71023385 359.54310438 -279 358 C-279 358.66 -279 359.32 -279 360 C-279.71800781 360.04898437 -280.43601562 360.09796875 -281.17578125 360.1484375 C-287.08069136 360.57494408 -292.96026931 361.08691972 -298.84448242 361.73535156 C-369.92120642 369.55501753 -440.9987558 357.57469454 -504.625 324.69140625 C-508.04114567 322.97937954 -511.47881598 321.48010554 -515 320 C-517.22496795 318.88751603 -519.0115323 317.49335274 -521 316 C-522.30626825 315.15214112 -523.62317389 314.32048842 -524.94921875 313.50390625 C-545.59277452 300.69233182 -564.79627193 286.69704097 -582.64453125 270.171875 C-584.81154967 268.17376183 -587.01642518 266.23550156 -589.25 264.3125 C-596.99313993 257.5612499 -596.99313993 257.5612499 -600 254 C-600 253.34 -600 252.68 -600 252 C-600.66 252 -601.32 252 -602 252 C-603.33984375 250.70703125 -603.33984375 250.70703125 -604.9375 248.8125 C-605.56140625 248.07644531 -606.1853125 247.34039063 -606.828125 246.58203125 C-607.54484375 245.72996094 -608.2615625 244.87789062 -609 244 C-609.81984375 243.05511719 -610.6396875 242.11023438 -611.484375 241.13671875 C-644.02171587 203.5374819 -677.34922769 149.94844501 -682.5625 99.34375 C-682.706875 98.2403125 -682.85125 97.136875 -683 96 C-683.66 95.67 -684.32 95.34 -685 95 C-685.27920005 92.96925586 -685.53863643 90.93463716 -685.72265625 88.89306641 C-686.04082174 85.57417466 -686.48295105 82.28343636 -686.9375 78.98046875 C-687.11023438 77.71009766 -687.28296875 76.43972656 -687.4609375 75.13085938 C-687.81873998 72.51345643 -688.17810123 69.89626607 -688.5390625 67.27929688 C-690.25568498 54.61600343 -691.16772757 42.20809869 -691.13037109 29.43505859 C-691.12497342 27.23918873 -691.13037091 25.04352025 -691.13671875 22.84765625 C-691.13605841 21.42447872 -691.13477816 20.00130132 -691.1328125 18.578125 C-691.13168457 17.31387695 -691.13055664 16.04962891 -691.12939453 14.74707031 C-690.99178712 10.76216736 -690.55030063 6.94664461 -690 3 C-689.34 3 -688.68 3 -688 3 C-687.938125 4.2375 -687.87625 5.475 -687.8125 6.75 C-686.32212989 19.77542643 -678.51612307 32.8993984 -668.52734375 41.21484375 C-655.99954594 50.06369012 -643.00375671 52.53275788 -628 51 C-619.4157821 49.35187811 -611.85515843 45.3081351 -605 40 C-603.948125 39.21625 -602.89625 38.4325 -601.8125 37.625 C-598.34129356 34.38520732 -595.68519724 30.90044911 -593 27 C-592.55527344 26.3709375 -592.11054687 25.741875 -591.65234375 25.09375 C-588.07641725 19.75719913 -586.00065128 14.08019159 -584 8 C-583.67 8 -583.34 8 -583 8 C-582.94054199 9.75751587 -582.94054199 9.75751587 -582.87988281 11.55053711 C-581.98960511 37.02436962 -580.8705159 61.93107088 -574.515625 86.7421875 C-574 89 -574 89 -574 92 C-573.34 92.33 -572.68 92.66 -572 93 C-571.48364258 94.75 -571.48364258 94.75 -571.08203125 97 C-566.19888154 120.92979259 -551.80044488 144.92315293 -537 164 C-536.23171875 164.99773437 -535.4634375 165.99546875 -534.671875 167.0234375 C-528.83252613 174.35413087 -522.45033527 181.20805819 -516 188 C-515.21496094 188.82757812 -514.42992187 189.65515625 -513.62109375 190.5078125 C-508.12101956 196.15547365 -502.20463979 201.14419495 -496 206 C-495.05125 206.7425 -494.1025 207.485 -493.125 208.25 C-461.11038428 232.77183332 -415.36892558 256.78797953 -374 256 C-373.67 256.33 -373.34 256.66 -373 257 C-366.53130567 258.03048812 -359.97796042 258.15899627 -353.44140625 258.16796875 C-352.57160629 258.17129715 -351.70180634 258.17462555 -350.8056488 258.17805481 C-348.98135907 258.18307663 -347.15706031 258.18546462 -345.33276367 258.18530273 C-342.57259758 258.18749199 -339.81283023 258.20570629 -337.05273438 258.22460938 C-328.11262579 258.25280636 -319.7591698 257.95878515 -311 256 C-308.5441623 255.70740019 -306.08582526 255.43466898 -303.625 255.1875 C-257.7431651 249.81319995 -215.44427596 226.88219408 -181 197 C-180.1234375 196.24847656 -179.246875 195.49695313 -178.34375 194.72265625 C-137.67078996 159.13381622 -112.20990432 104.68715553 -107.375 51.25 C-107.31307465 50.59289032 -107.25114929 49.93578064 -107.18734741 49.25875854 C-105.92777273 35.86062051 -105.31375191 22.45319664 -105 9 C-103.09704544 11.85443184 -102.07620035 14.30799906 -100.875 17.5 C-94.33495849 33.36103909 -83.43335871 42.40558856 -68 49 C-55.9596713 53.13242752 -42.59180542 52.00099195 -31 47 C-27.47351891 45.23427951 -24.22948291 43.26006441 -21 41 C-20.38769531 40.59523438 -19.77539062 40.19046875 -19.14453125 39.7734375 C-8.55052062 31.87035405 -2.75094065 18.00753149 -0.546875 5.41015625 C-0.30690467 3.61353624 -0.14172752 1.80702588 0 0 Z " fill="#7967FD" transform="translate(857,432)"/>
<path d="M0 0 C0.83789062 0.45375 1.67578125 0.9075 2.5390625 1.375 C11.75487841 6.62487655 19.49795593 13.28334468 26.86328125 20.8671875 C28.77267655 22.77309213 30.7292892 24.47797856 32.8125 26.1875 C42.65341768 34.67847072 50.48883381 45.56379048 57.79101562 56.23779297 C58.98777434 57.98217996 60.20379228 59.71186609 61.421875 61.44140625 C67.27945114 69.87846546 72.25271802 78.69258347 77.06591797 87.76367188 C77.54947754 88.67310547 78.03303711 89.58253906 78.53125 90.51953125 C79.17416992 91.74313354 79.17416992 91.74313354 79.83007812 92.99145508 C80.96332878 95.13340526 80.96332878 95.13340526 83 97 C82.67 97.66 82.34 98.32 82 99 C82.66 99.33 83.32 99.66 84 100 C98.74313643 125.53843045 106.95948875 158.24183987 112 187 C112.26828613 188.47073975 112.26828613 188.47073975 112.54199219 189.97119141 C116.07776339 209.7007947 116.5505514 228.38648617 104.70703125 245.640625 C104.14371094 246.41921875 103.58039063 247.1978125 103 248 C101.88625 249.5778125 101.88625 249.5778125 100.75 251.1875 C90.87610685 261.28579981 78.35537646 267.92338485 64.12524414 268.29248047 C47.89451097 268.44100408 35.27478175 262.7007611 23.39453125 251.625 C17.21179102 244.84718363 12.73958408 236.73242427 10 228 C9.34 228.99 8.68 229.98 8 231 C7.96559814 230.45400146 7.93119629 229.90800293 7.89575195 229.34545898 C5.90459842 199.63868315 -1.03365771 169.29530298 -15.1171875 142.85546875 C-16 141 -16 141 -16 139 C-16.66 138.67 -17.32 138.34 -18 138 C-18.88576041 136.31825219 -19.70756804 134.60268597 -20.5 132.875 C-25.62168588 122.395434 -32.39042202 112.95344111 -39.4375 103.6875 C-39.85032227 103.14230713 -40.26314453 102.59711426 -40.68847656 102.03540039 C-42.66853086 99.48430236 -44.27970293 97.81353138 -47 96 C-47.92850499 94.58017848 -48.85517562 93.1590912 -49.76855469 91.72949219 C-52.17236974 88.35347597 -55.18415987 85.5294586 -58.125 82.625 C-58.75792969 81.98433594 -59.39085937 81.34367187 -60.04296875 80.68359375 C-60.95369141 79.77673828 -60.95369141 79.77673828 -61.8828125 78.8515625 C-62.43340332 78.30322754 -62.98399414 77.75489258 -63.55126953 77.18994141 C-64.94512056 75.78842945 -64.94512056 75.78842945 -67 76 C-67.3403125 75.0409375 -67.3403125 75.0409375 -67.6875 74.0625 C-68.83177823 71.72912652 -68.83177823 71.72912652 -71.5 71.4375 C-72.7375 71.2209375 -72.7375 71.2209375 -74 71 C-74.66 70.01 -75.32 69.02 -76 68 C-76.99 68 -77.98 68 -79 68 C-79 65.33333333 -79 62.66666667 -79 60 C-79.91064835 58.01351593 -80.96441662 56.13916586 -82.02734375 54.23046875 C-85.80962692 45.55704027 -85.20729213 33.293761 -82.09765625 24.5 C-75.99558178 10.60203681 -66.71556391 0.90864871 -52.61328125 -5 C-35.78992595 -10.94101512 -15.50663906 -8.60936427 0 0 Z " fill="#00E3EF" transform="translate(743,216)"/>
<path d="M0 0 C10.88112129 8.28745486 18.76135971 18.25433017 21 32 C22.12493146 43.53858268 19.92384451 55.28724608 12.8125 64.6875 C12.07966797 65.52861328 12.07966797 65.52861328 11.33203125 66.38671875 C9.91281045 67.97302619 9.91281045 67.97302619 9.03515625 70.01953125 C7.84625648 72.29414326 6.61348367 73.38907652 4.625 75 C-4.90501919 83.09446276 -13.38245693 92.09195858 -21 102 C-21.42635742 102.54994629 -21.85271484 103.09989258 -22.29199219 103.66650391 C-50.03571356 139.64945139 -65.48929543 182.78454635 -69 228 C-69.66 227.01 -70.32 226.02 -71 225 C-71.20753906 225.67804688 -71.41507812 226.35609375 -71.62890625 227.0546875 C-74.03636177 234.32741924 -77.27509566 239.99376567 -82 246 C-82.5465625 246.7115625 -83.093125 247.423125 -83.65625 248.15625 C-92.04817672 258.4482356 -102.66798516 262.88932839 -115 267 C-130.98417651 268.10453342 -143.60937108 266.32298076 -156.60546875 256.0859375 C-165.44346296 248.38693439 -174.27343195 236.50351005 -175.1953125 224.4453125 C-175.16050781 223.29675781 -175.16050781 223.29675781 -175.125 222.125 C-175.10695312 221.34382812 -175.08890625 220.56265625 -175.0703125 219.7578125 C-175.04710937 219.17773438 -175.02390625 218.59765625 -175 218 C-175.66 218 -176.32 218 -177 218 C-176.62971928 205.41045542 -174.78386841 193.23269472 -172.51757812 180.85693359 C-172.06562313 178.36222732 -171.64571991 175.86489624 -171.234375 173.36328125 C-167.29607577 150.97123706 -158.36342605 128.62667766 -149 108 C-148.6685498 107.25105469 -148.33709961 106.50210938 -147.99560547 105.73046875 C-139.18334444 85.86009333 -127.96693793 67.42277568 -115 50 C-114.32493408 49.08951904 -114.32493408 49.08951904 -113.63623047 48.16064453 C-106.20663519 38.18984896 -98.54650315 28.99842156 -89 21 C-87.53766194 19.75468738 -86.07924911 18.50474923 -84.625 17.25 C-83.97789062 16.69828125 -83.33078125 16.1465625 -82.6640625 15.578125 C-80.77599482 13.90452414 -80.77599482 13.90452414 -79 11 C-78.34 11 -77.68 11 -77 11 C-77 10.34 -77 9.68 -77 9 C-75.65342143 8.03322564 -74.29412569 7.08132549 -72.890625 6.19921875 C-71.56709937 5.35970972 -70.26627017 4.4838296 -68.984375 3.58203125 C-47.82501015 -11.22191286 -22.31568795 -13.70522892 0 0 Z " fill="#00E3EF" transform="translate(344,217)"/>
<path d="M0 0 C12.99890297 11.12784876 19.00628321 24.26471039 20.453125 41.14453125 C20.76753706 50.89130512 18.23086028 58.57564052 12.515625 66.33203125 C9.28943979 68.6620539 6.15096008 69.11546239 2.265625 68.95703125 C-4.03021192 67.1582207 -7.29162804 62.22240895 -10.734375 56.95703125 C-12.55327784 53.66197386 -14.29080735 50.34550445 -15.9609375 46.97265625 C-18.31564283 42.96861987 -21.04328193 39.96254605 -25.046875 37.58203125 C-30.01243279 36.42725037 -34.13398615 36.97497445 -38.484375 39.64453125 C-42.68122265 43.957958 -45.02186124 48.51115847 -47.609375 53.89453125 C-50.52128969 59.79904341 -53.45544541 64.88612835 -59.109375 68.45703125 C-62.86437787 69.17226989 -66.06738802 69.08246831 -69.734375 67.95703125 C-75.14325451 64.0233007 -77.73416858 57.95127663 -79.328125 51.5859375 C-81.80646679 35.54820647 -77.71662767 20.85028279 -68.234375 7.89453125 C-61.47929496 -0.20134918 -52.12025225 -6.76573747 -41.734375 -9.04296875 C-40.765 -9.26984375 -39.795625 -9.49671875 -38.796875 -9.73046875 C-24.47311931 -11.19207647 -11.71288814 -8.75120071 0 0 Z " fill="#00E2ED" transform="translate(445.734375,412.04296875)"/>
<path d="M0 0 C0.5671875 0.4846875 1.134375 0.969375 1.71875 1.46875 C1.71875 2.12875 1.71875 2.78875 1.71875 3.46875 C2.30785156 3.70851563 2.89695312 3.94828125 3.50390625 4.1953125 C11.12244828 8.57563825 15.08330228 19.53152269 17.71875 27.46875 C20.79241332 39.17108275 20.94828816 51.26860075 15.8046875 62.45703125 C13.72556516 65.86307314 11.37731059 67.93725952 7.71875 69.46875 C3.66591591 69.98456525 1.36261585 69.77097275 -2.34375 68.03125 C-7.2165462 63.78051289 -10.15616963 58.52397622 -13.26171875 52.91015625 C-13.6067041 52.29060059 -13.95168945 51.67104492 -14.30712891 51.03271484 C-14.98333052 49.80867208 -15.64892964 48.57869404 -16.30224609 47.34228516 C-18.74598971 42.88235903 -21.39633183 39.48597548 -26.30859375 37.75390625 C-31.20986676 37.18259222 -33.9260268 37.87635524 -38.28125 40.46875 C-38.94125 40.46875 -39.60125 40.46875 -40.28125 40.46875 C-40.5702417 41.04834473 -40.8592334 41.62793945 -41.15698242 42.22509766 C-42.93868923 45.78077314 -44.75959021 49.3148872 -46.59375 52.84375 C-46.97208984 53.58625 -47.35042969 54.32875 -47.74023438 55.09375 C-50.51075679 60.40040207 -53.38191918 65.66646328 -58.59375 68.90625 C-63.5419298 69.94191554 -67.6294518 69.40727171 -72.03125 66.90625 C-80.18906786 58.06861398 -79.90272781 47.18347105 -79.46923828 35.84521484 C-79.03840782 30.39884637 -77.31859697 25.49560609 -75.28125 20.46875 C-74.95769531 19.60507812 -74.63414062 18.74140625 -74.30078125 17.8515625 C-72.36520952 13.03238392 -70.26049426 9.91742836 -66.28125 6.46875 C-65.65476562 5.85257812 -65.02828125 5.23640625 -64.3828125 4.6015625 C-46.15014397 -12.84124314 -20.73515609 -13.91811847 0 0 Z " fill="#00E1EC" transform="translate(639.28125,411.53125)"/>
<path d="M0 0 C0.33 0 0.66 0 1 0 C1.60971292 14.67040637 2.1864066 29.31530199 2 44 C1.67 44 1.34 44 1 44 C-1.11435999 33.71558879 -1.58426348 23.45905549 -2 13 C-2.30510498 13.51369141 -2.61020996 14.02738281 -2.92456055 14.55664062 C-5.56849602 18.91171533 -8.32730779 22.75471882 -11.8125 26.5 C-12.60269531 27.3559375 -13.39289063 28.211875 -14.20703125 29.09375 C-15.09455078 30.03734375 -15.09455078 30.03734375 -16 31 C-16.66 30.67 -17.32 30.34 -18 30 C-17.40832031 29.29875 -16.81664062 28.5975 -16.20703125 27.875 C-8.70075606 18.86257172 -3.67356495 11.16435381 0 0 Z " fill="#6B58E8" transform="translate(273,440)"/>
<path d="M0 0 C0.64324219 0.06058594 1.28648437 0.12117187 1.94921875 0.18359375 C8.44339748 0.78576439 14.93725347 1.28998376 21.4453125 1.71875 C24 2 24 2 25 3 C32.30817306 4.23062852 39.74695503 4.13348549 47.1328125 4.09765625 C48.25066132 4.0962413 49.36851013 4.09482635 50.52023315 4.09336853 C54.05518383 4.08781622 57.59006879 4.07527279 61.125 4.0625 C63.53645741 4.05747883 65.94791583 4.05291701 68.359375 4.04882812 C74.23960537 4.03786246 80.11979799 4.02117253 86 4 C86 4.33 86 4.66 86 5 C57.46368891 9.34248212 28.06106274 7.4587474 0 1 C0 0.67 0 0.34 0 0 Z " fill="#6051D3" transform="translate(459,686)"/>
<path d="M0 0 C1.22609206 3.67827618 0.6321818 4.72863546 -0.66015625 8.3203125 C-1.03889893 9.40006348 -1.4176416 10.47981445 -1.80786133 11.59228516 C-2.22189209 12.75808105 -2.63592285 13.92387695 -3.0625 15.125 C-11.62896386 40.08707984 -17.94722115 66.52261197 -19 93 C-19.66 93 -20.32 93 -21 93 C-20.62971928 80.41045542 -18.78386841 68.23269472 -16.51757812 55.85693359 C-16.06562313 53.36222732 -15.64571991 50.86489624 -15.234375 48.36328125 C-12.42425749 32.42625578 -7.25493018 14.50986037 0 0 Z " fill="#18A5C6" transform="translate(188,342)"/>
<path d="M0 0 C0.99 0.33 1.98 0.66 3 1 C3.309375 1.66 3.61875 2.32 3.9375 3 C4.81619631 5.16326228 4.81619631 5.16326228 6.9375 5.8125 C9.19742713 6.15686809 9.19742713 6.15686809 12 5 C14.62890625 6.73046875 14.62890625 6.73046875 17.5625 9.1875 C19.01849609 10.38439453 19.01849609 10.38439453 20.50390625 11.60546875 C22.79208736 13.80054703 23.63153862 15.25720401 25 18 C26.32399568 18.68502385 27.6591458 19.34859211 29 20 C30.79598318 21.65992385 32.5433101 23.3733972 34.25 25.125 C35.14203125 26.03507812 36.0340625 26.94515625 36.953125 27.8828125 C37.62859375 28.58148438 38.3040625 29.28015625 39 30 C38.67 30.66 38.34 31.32 38 32 C36.92685547 30.85724609 36.92685547 30.85724609 35.83203125 29.69140625 C23.01008934 16.30366242 9.32256802 8.4431503 -8 2 C-4.90279155 1.12159004 -3.09354597 1.00564594 0 2 C0 1.34 0 0.68 0 0 Z " fill="#815AF3" transform="translate(734,208)"/>
<path d="M0 0 C-2.12493141 0.02693575 -4.24995912 0.04636628 -6.375 0.0625 C-7.55835938 0.07410156 -8.74171875 0.08570313 -9.9609375 0.09765625 C-13 0 -13 0 -15 -1 C-18.94298754 -1.50247286 -22.91253904 -1.75506768 -26.875 -2.0625 C-27.9578125 -2.15337891 -29.040625 -2.24425781 -30.15625 -2.33789062 C-41.8962704 -3.26952709 -53.49521072 -3.01349139 -65.25 -2.5 C-66.38824219 -2.45230469 -67.52648437 -2.40460938 -68.69921875 -2.35546875 C-71.46624834 -2.239207 -74.23316055 -2.12068812 -77 -2 C-77 -2.33 -77 -2.66 -77 -3 C-55.67420186 -6.45656931 -19.3545614 -10.97163998 0 0 Z " fill="#5F54D6" transform="translate(557,232)"/>
<path d="M0 0 C0.99 0.33 1.98 0.66 3 1 C1.3962669 1.64690922 -0.20800306 2.29248764 -1.8125 2.9375 C-2.70582031 3.29714844 -3.59914062 3.65679687 -4.51953125 4.02734375 C-9.71334835 6.06397439 -13.92467905 6.18338288 -19.4375 6.1875 C-20.29666016 6.19974609 -21.15582031 6.21199219 -22.04101562 6.22460938 C-23.2872168 6.22750977 -23.2872168 6.22750977 -24.55859375 6.23046875 C-25.31454834 6.23457764 -26.07050293 6.23868652 -26.84936523 6.24291992 C-29.27104102 5.9693852 -30.89775389 5.20294367 -33 4 C-31.66666667 3.66666667 -30.33333333 3.33333333 -29 3 C-28.10595459 2.74379883 -28.10595459 2.74379883 -27.19384766 2.48242188 C-24.64841899 1.92268817 -22.2533836 1.80361049 -19.6484375 1.71875 C-18.63265625 1.68136719 -17.616875 1.64398438 -16.5703125 1.60546875 C-14.43230015 1.53489866 -12.29427923 1.46458803 -10.15625 1.39453125 C-8.63644531 1.33845703 -8.63644531 1.33845703 -7.0859375 1.28125 C-6.1582959 1.25095703 -5.2306543 1.22066406 -4.27490234 1.18945312 C-1.96890405 1.13921876 -1.96890405 1.13921876 0 0 Z " fill="#04EDEC" transform="translate(239,478)"/>
<path d="M0 0 C1 3 1 3 0 6 C1.98 5.67 3.96 5.34 6 5 C6.33 4.01 6.66 3.02 7 2 C9.0625 1.3125 9.0625 1.3125 11 1 C9.46075571 5.13906545 6.77250219 6.90953512 3.25 9.4375 C-0.95881146 12.49599524 -5.05657508 15.60427299 -9 19 C-9.66 18.67 -10.32 18.34 -11 18 C-10.113125 17.071875 -9.22625 16.14375 -8.3125 15.1875 C-4.39479187 10.66492007 -2.24570228 5.49501486 0 0 Z " fill="#775BF2" transform="translate(363,268)"/>
<path d="M0 0 C0.33 0 0.66 0 1 0 C1.02922653 4.49998618 1.04687482 8.99994765 1.0625 13.5 C1.07087891 14.7684375 1.07925781 16.036875 1.08789062 17.34375 C1.10438728 23.67846685 0.90309481 29.73477973 0 36 C-0.0612491 37.99917047 -0.0874994 40.00004774 -0.0625 42 C-0.05347656 42.94875 -0.04445313 43.8975 -0.03515625 44.875 C-0.02355469 45.57625 -0.01195312 46.2775 0 47 C-0.66 47 -1.32 47 -2 47 C-2.33 47.99 -2.66 48.98 -3 50 C-2.119986 33.32605059 -1.05394315 16.66365436 0 0 Z " fill="#5F59D2" transform="translate(752,449)"/>
<path d="M0 0 C0.66 0 1.32 0 2 0 C2.0825 1.27875 2.165 2.5575 2.25 3.875 C2.74340771 8.60722849 4.25475318 12.44897146 6.2578125 16.73828125 C7 19 7 19 6 23 C4.68 20.36 3.36 17.72 2 15 C1.67 19.62 1.34 24.24 1 29 C0.67 29 0.34 29 0 29 C0 19.43 0 9.86 0 0 Z " fill="#884FEE" transform="translate(167,435)"/>
<path d="M0 0 C0.66 0.33 1.32 0.66 2 1 C-0.46153846 5.8 -0.46153846 5.8 -3.1875 6.8125 C-3.785625 6.874375 -4.38375 6.93625 -5 7 C-5 7.66 -5 8.32 -5 9 C-6.3984375 10.375 -6.3984375 10.375 -8.375 12 C-13.54143497 16.37943323 -18.25777524 21.17031617 -23 26 C-23 23 -23 23 -20.88867188 20.5480957 C-19.92302899 19.58292799 -18.94912397 18.62598217 -17.96875 17.67578125 C-17.45824097 17.16951706 -16.94773193 16.66325287 -16.42175293 16.14164734 C-14.78806593 14.52476595 -13.14426256 12.91861874 -11.5 11.3125 C-10.3912453 10.21878969 -9.28316353 9.12439674 -8.17578125 8.02929688 C-5.45826861 5.34487842 -2.73163639 2.6700419 0 0 Z " fill="#438DDD" transform="translate(272,219)"/>
<path d="M0 0 C0.763125 0.639375 1.52625 1.27875 2.3125 1.9375 C4.88246713 4.14232781 4.88246713 4.14232781 8 5 C8 5.66 8 6.32 8 7 C8.66 7 9.32 7 10 7 C11.33203125 8.50390625 11.33203125 8.50390625 12.8125 10.5625 C13.59947266 11.64724609 13.59947266 11.64724609 14.40234375 12.75390625 C14.92957031 13.49511719 15.45679688 14.23632812 16 15 C16.49628906 15.68964844 16.99257813 16.37929688 17.50390625 17.08984375 C18.67552143 18.72209396 19.83864206 20.36043585 21 22 C16.86360664 20.40907948 13.76786752 17.39525082 11 14 C11 13.34 11 12.68 11 12 C10.34 12 9.68 12 9 12 C7.34375 10.390625 7.34375 10.390625 5.5 8.25 C4.8915625 7.55390625 4.283125 6.8578125 3.65625 6.140625 C2.12023037 4.15539208 1.0276034 2.28127955 0 0 Z " fill="#6B58DD" transform="translate(246,672)"/>
<path d="M0 0 C0.33 0 0.66 0 1 0 C1.76816017 13.31477634 -0.56118714 25.94813515 -3 39 C-3.33 39 -3.66 39 -4 39 C-3.85761163 36.95809019 -3.71092972 34.91647955 -3.5625 32.875 C-3.48128906 31.73804688 -3.40007813 30.60109375 -3.31640625 29.4296875 C-3 26 -3 26 -2.46484375 22.96484375 C-1.97068814 19.8130445 -1.93650164 16.87432383 -2 13.6875 C-2.03730315 11.7920337 -2.0471601 9.89524667 -2 8 C-1.67 7.67 -1.34 7.34 -1 7 C-0.63239269 4.67182036 -0.29758419 2.3381615 0 0 Z " fill="#6053D3" transform="translate(857,478)"/>
<path d="M0 0 C1.97625073 2.9643761 3.29886906 5.78787746 4.6875 9.0625 C5.14511719 10.12597656 5.60273437 11.18945312 6.07421875 12.28515625 C6.37972656 13.18105469 6.68523438 14.07695312 7 15 C6.67 15.66 6.34 16.32 6 17 C5.01 15.35 4.02 13.7 3 12 C2.67 20.25 2.34 28.5 2 37 C1.67 37 1.34 37 1 37 C0.67 24.79 0.34 12.58 0 0 Z " fill="#8D5DF9" transform="translate(752,441)"/>
<path d="M0 0 C1.47668858 0.0133035 2.95331108 0.03716415 4.4296875 0.0703125 C5.18378906 0.07933594 5.93789063 0.08835937 6.71484375 0.09765625 C8.57826004 0.1212438 10.44151343 0.15711531 12.3046875 0.1953125 C11.9746875 0.8553125 11.6446875 1.5153125 11.3046875 2.1953125 C4.9211419 4.32316103 -1.00875531 4.41655888 -7.6953125 4.1953125 C-3.6953125 0.1953125 -3.6953125 0.1953125 0 0 Z " fill="#02F0EB" transform="translate(809.6953125,479.8046875)"/>
<path d="M0 0 C1.26788761 3.80366284 0.50180969 5.16581396 -0.80078125 8.91796875 C-1.20103516 10.09037109 -1.60128906 11.26277344 -2.01367188 12.47070312 C-2.44228516 13.69724609 -2.87089844 14.92378906 -3.3125 16.1875 C-7.06288749 26.97471541 -7.06288749 26.97471541 -10 38 C-10.66 38 -11.32 38 -12 38 C-12.37505624 33.99940008 -11.35120275 31.11799009 -9.92016602 27.42089844 C-7.72873339 21.65537817 -5.79368087 15.79213801 -3.78515625 9.9609375 C-3.26888672 8.46820313 -3.26888672 8.46820313 -2.7421875 6.9453125 C-2.4313623 6.04312988 -2.12053711 5.14094727 -1.80029297 4.21142578 C-1 2 -1 2 0 0 Z " fill="#09B6C6" transform="translate(188,342)"/>
<path d="M0 0 C2.31 0.66 4.62 1.32 7 2 C4.05949843 4.27034075 1.03941567 6.30412051 -2.125 8.25 C-3.42824219 9.06210938 -3.42824219 9.06210938 -4.7578125 9.890625 C-5.49773437 10.25671875 -6.23765625 10.6228125 -7 11 C-7.66 10.67 -8.32 10.34 -9 10 C-8.34 9.01 -7.68 8.02 -7 7 C-7.33 6.34 -7.66 5.68 -8 5 C-7.236875 4.731875 -6.47375 4.46375 -5.6875 4.1875 C-3.12619116 3.05575888 -1.80307062 2.08776599 0 0 Z " fill="#7861F3" transform="translate(281,211)"/>
<path d="M0 0 C0.61875 0.639375 1.2375 1.27875 1.875 1.9375 C2.91209631 2.96297618 3.95463616 3.98295301 5 5 C5.70511719 5.68964844 6.41023437 6.37929688 7.13671875 7.08984375 C13.23419289 12.83384113 19.62128351 17.05707762 27 21 C26.34 21.33 25.68 21.66 25 22 C14.85644892 18.31840868 5.48995711 11.36522095 0 2 C0 1.34 0 0.68 0 0 Z " fill="#824DFA" transform="translate(760,460)"/>
<path d="M0 0 C0.66 0 1.32 0 2 0 C2 0.66 2 1.32 2 2 C2.57878906 2.25910156 3.15757812 2.51820313 3.75390625 2.78515625 C6.16823238 4.09099178 7.92129473 5.58099416 9.9375 7.4375 C12.17041972 9.45126278 14.05229672 11.02918887 16.6875 12.5 C20.09940114 14.71312506 21.76723741 17.61895951 24 21 C21.23205332 19.71634731 19.01702326 18.32688796 16.72265625 16.3203125 C16.12646484 15.80339844 15.53027344 15.28648437 14.91601562 14.75390625 C13.99852539 13.94759766 13.99852539 13.94759766 13.0625 13.125 C11.8457139 12.06434446 10.62827765 11.00443424 9.41015625 9.9453125 C8.83152832 9.4390332 8.25290039 8.93275391 7.65673828 8.41113281 C6.18627556 7.15866088 4.65704395 5.97592768 3.12109375 4.8046875 C1 3 1 3 0 0 Z " fill="#6754D7" transform="translate(269,696)"/>
<path d="M0 0 C7.77872659 1.94468165 13.68336197 7.20003124 19 13 C19.33 13.66 19.66 14.32 20 15 C15.1438982 13.44308186 11.66681658 10.64482991 7.75 7.5 C7.11320312 7.00113281 6.47640625 6.50226562 5.8203125 5.98828125 C1.13494819 2.26989638 1.13494819 2.26989638 0 0 Z " fill="#6C58DF" transform="translate(293,717)"/>
<path d="M0 0 C5.28 0.33 10.56 0.66 16 1 C16 1.33 16 1.66 16 2 C11.64655438 2.50641298 7.29214175 3.00398642 2.9375 3.5 C1.09381836 3.71462891 1.09381836 3.71462891 -0.78710938 3.93359375 C-1.98271484 4.06894531 -3.17832031 4.20429688 -4.41015625 4.34375 C-5.50465088 4.46943359 -6.59914551 4.59511719 -7.72680664 4.72460938 C-11.16619742 5.01398305 -14.5501 5.04582048 -18 5 C-14.34827367 2.73150334 -10.9872882 2.6104049 -6.75 2.375 C-5.48671875 2.30023438 -4.2234375 2.22546875 -2.921875 2.1484375 C-1.95765625 2.09945312 -0.9934375 2.05046875 0 2 C0 1.34 0 0.68 0 0 Z " fill="#6052D0" transform="translate(472,128)"/>
<path d="M0 0 C8.35020652 2.80328362 14.73407758 10.15430086 20 17 C17 17 17 17 15.5 15.50390625 C15.005 14.86324219 14.51 14.22257813 14 13.5625 C11.62300315 10.49568071 11.62300315 10.49568071 8 9 C7.360625 8.175 6.72125 7.35 6.0625 6.5 C3.95413975 3.94441182 3.2008465 3.34294784 0 3 C0 2.01 0 1.02 0 0 Z " fill="#07EEF1" transform="translate(752,223)"/>
<path d="M0 0 C0.33 0 0.66 0 1 0 C0.67 10.56 0.34 21.12 0 32 C-0.33 32 -0.66 32 -1 32 C-1.22630724 27.60489874 -1.42790777 23.2090006 -1.625 18.8125 C-1.68945312 17.56662109 -1.75390625 16.32074219 -1.8203125 15.03710938 C-1.89765625 13.2340332 -1.89765625 13.2340332 -1.9765625 11.39453125 C-2.02893066 10.28956299 -2.08129883 9.18459473 -2.13525391 8.04614258 C-1.99623333 4.91516829 -1.34010352 2.81055841 0 0 Z " fill="#8D5DF7" transform="translate(273,440)"/>
<path d="M0 0 C4.01571172 3.69868185 6.72213078 7.43320066 9.375 12.1875 C9.74238281 12.81591797 10.10976563 13.44433594 10.48828125 14.09179688 C11.39457946 15.69064372 12.20593529 17.34254747 13 19 C12.67 19.66 12.34 20.32 12 21 C11.5875 20.2575 11.175 19.515 10.75 18.75 C9.16954513 15.99703559 9.16954513 15.99703559 7.0625 14.25 C3.40596683 10.26105472 1.69450792 5.08352376 0 0 Z " fill="#06C0CF" transform="translate(804,279)"/>
<path d="M0 0 C1.76141726 2.64212589 3.23818698 5.2427764 4.6875 8.0625 C5.14511719 8.94035156 5.60273437 9.81820313 6.07421875 10.72265625 C6.37972656 11.47417969 6.68523438 12.22570312 7 13 C6.67 13.66 6.34 14.32 6 15 C2.83282717 13.41641358 1.26731682 12.54736301 -0.3125 9.3125 C-0.539375 8.549375 -0.76625 7.78625 -1 7 C-0.34 7 0.32 7 1 7 C0.67 4.69 0.34 2.38 0 0 Z " fill="#7F55F8" transform="translate(659,265)"/>
<path d="M0 0 C2 1.375 2 1.375 4 3 C4 3.66 4 4.32 4 5 C4.55171875 5.22429687 5.1034375 5.44859375 5.671875 5.6796875 C8.71211744 7.40385183 10.81425673 9.62515822 13.25 12.125 C14.14203125 13.03507813 15.0340625 13.94515625 15.953125 14.8828125 C16.62859375 15.58148438 17.3040625 16.28015625 18 17 C17.67 17.66 17.34 18.32 17 19 C16.20335937 18.18015625 15.40671875 17.3603125 14.5859375 16.515625 C13.51589905 15.42681394 12.44557107 14.33828737 11.375 13.25 C10.85292969 12.71117187 10.33085938 12.17234375 9.79296875 11.6171875 C6.42897016 8.21165806 3.07277011 5.51949142 -1 3 C-0.67 2.01 -0.34 1.02 0 0 Z " fill="#4486D7" transform="translate(755,221)"/>
<path d="M0 0 C0.721875 0.103125 1.44375 0.20625 2.1875 0.3125 C2.1875 0.9725 2.1875 1.6325 2.1875 2.3125 C3.1775 2.6425 4.1675 2.9725 5.1875 3.3125 C0.69093896 5.56078052 -2.89122966 5.47932272 -7.8125 5.3125 C-3.50480769 0.38942308 -3.50480769 0.38942308 0 0 Z " fill="#7F58FC" transform="translate(289.8125,207.6875)"/>
<path d="M0 0 C0.66 0.33 1.32 0.66 2 1 C-5.21095718 9.93576826 -5.21095718 9.93576826 -10 11 C-10.99 11 -11.98 11 -13 11 C-11.58510266 9.72719706 -10.16800334 8.4568417 -8.75 7.1875 C-7.96109375 6.47980469 -7.1721875 5.77210938 -6.359375 5.04296875 C-4.2983167 3.25831065 -2.20394477 1.60240938 0 0 Z " fill="#6D64E6" transform="translate(296,199)"/>
<path d="M0 0 C0.66 0.33 1.32 0.66 2 1 C-0.39322241 6.23517403 -4.16098377 8.29888643 -9 11 C-9 8 -9 8 -7.03125 5.95703125 C-6.1959375 5.24933594 -5.360625 4.54164063 -4.5 3.8125 C-3.6646875 3.09707031 -2.829375 2.38164062 -1.96875 1.64453125 C-1.3190625 1.10183594 -0.669375 0.55914062 0 0 Z " fill="#02CFD9" transform="translate(582,410)"/>
<path d="M0 0 C0.66 0.33 1.32 0.66 2 1 C-1.16474305 4.25516428 -4.32752791 7.32008793 -8 10 C-8.66 10 -9.32 10 -10 10 C-10 8.68 -10 7.36 -10 6 C-7.35261084 4.5393715 -6.10551666 4 -3 4 C-2.67 3.01 -2.34 2.02 -2 1 C-1.34 0.67 -0.68 0.34 0 0 Z " fill="#7366EE" transform="translate(372,269)"/>
<path d="M0 0 C3.59905908 0.55550695 4.99909799 1.74887248 7.25 4.5625 C8.03117188 5.52349609 8.03117188 5.52349609 8.828125 6.50390625 C9.21484375 6.99761719 9.6015625 7.49132812 10 8 C8.68 8.33 7.36 8.66 6 9 C5.566875 8.34 5.13375 7.68 4.6875 7 C3.8521875 6.01 3.8521875 6.01 3 5 C2.01 5 1.02 5 0 5 C0 3.35 0 1.7 0 0 Z " fill="#31A6DE" transform="translate(664,279)"/>
<path d="M0 0 C2.64 0 5.28 0 8 0 C4.90538257 2.06307829 2.03333405 3.24271634 -1.4375 4.5625 C-3.13712891 5.21412109 -3.13712891 5.21412109 -4.87109375 5.87890625 C-7.25297022 6.73233764 -9.53424459 7.46080533 -12 8 C-9.44918171 5.02404533 -6.56565563 3.55997434 -3 2 C-2.01 2 -1.02 2 0 2 C0 1.34 0 0.68 0 0 Z " fill="#7D52FD" transform="translate(692,208)"/>
<path d="M0 0 C1.37562854 1.28965176 2.70766393 2.62689293 4 4 C4 4.66 4 5.32 4 6 C4.61875 6.165 5.2375 6.33 5.875 6.5 C9.27756949 8.90181375 9.22612026 12.00162134 10 16 C7.21234235 13.4696646 5.32536505 10.60660199 3.3125 7.4375 C2.68988281 6.46683594 2.06726563 5.49617187 1.42578125 4.49609375 C0 2 0 2 0 0 Z " fill="#6754D9" transform="translate(211,623)"/>
<path d="M0 0 C1.32 0 2.64 0 4 0 C4.33 3.3 4.66 6.6 5 10 C4.34 10 3.68 10 3 10 C0.96564469 6.27034861 0 4.33094958 0 0 Z " fill="#03EDE9" transform="translate(172,448)"/>
<path d="M0 0 C0.33 0 0.66 0 1 0 C0.67 6.93 0.34 13.86 0 21 C-0.33 21 -0.66 21 -1 21 C-2.84883683 13.13911822 -3.48713927 7.42423199 0 0 Z " fill="#824DFC" transform="translate(659,243)"/>
<path d="M0 0 C-0.99 0.33 -1.98 0.66 -3 1 C-3 1.66 -3 2.32 -3 3 C-7.95 3 -12.9 3 -18 3 C-18 2.67 -18 2.34 -18 2 C-16.12612523 1.6603981 -14.25083303 1.32861309 -12.375 1 C-11.33085938 0.814375 -10.28671875 0.62875 -9.2109375 0.4375 C-6.09425135 0.01284203 -3.14069188 -0.07545206 0 0 Z " fill="#5F50D4" transform="translate(581,789)"/>
<path d="M0 0 C1.65 0 3.3 0 5 0 C5.125 2.875 5.125 2.875 5 6 C4.34 6.66 3.68 7.32 3 8 C0 2.25 0 2.25 0 0 Z " fill="#0DE1E9" transform="translate(755,448)"/>
<path d="M0 0 C0.99 0 1.98 0 3 0 C2.375 7.625 2.375 7.625 -1 11 C-0.67 7.37 -0.34 3.74 0 0 Z " fill="#04F3EC" transform="translate(360,264)"/>
<path d="M0 0 C3 1 3 1 5 4 C0.02398374 5.71050559 -3.42616295 4.00885647 -8 2 C-4.90279155 1.12159004 -3.09354597 1.00564594 0 2 C0 1.34 0 0.68 0 0 Z " fill="#8552FD" transform="translate(734,208)"/>
<path d="M0 0 C0.66 0 1.32 0 2 0 C1.82374165 2.37948772 1.30280227 3.70225849 -0.40234375 5.37890625 C-1.90649092 6.62115486 -3.45129851 7.81376056 -5 9 C-5 4.68381834 -2.86729652 3.07210341 0 0 Z " fill="#03CCD6" transform="translate(382,415)"/>
<path d="M0 0 C0.33 0 0.66 0 1 0 C0.54775239 5.91492272 -0.1582605 11.35199888 -2 17 C-4 14 -4 14 -4 12 C-3.34 12 -2.68 12 -2 12 C-1.34 8.04 -0.68 4.08 0 0 Z " fill="#5F50CE" transform="translate(851,523)"/>
<path d="M0 0 C0.33 0 0.66 0 1 0 C1 4.95 1 9.9 1 15 C-2 11 -2 11 -1.85546875 8.203125 C-1.63503906 7.22859375 -1.41460938 6.2540625 -1.1875 5.25 C-0.86845703 3.77273438 -0.86845703 3.77273438 -0.54296875 2.265625 C-0.36378906 1.51796875 -0.18460938 0.7703125 0 0 Z " fill="#675DDA" transform="translate(857,478)"/>
<path d="M0 0 C0 3.63 0 7.26 0 11 C-2.6855594 8.3144406 -3.06049974 5.62378672 -4 2 C-1 0 -1 0 0 0 Z " fill="#0AE8E8" transform="translate(664,264)"/>
<path d="M0 0 C0.66 0.99 1.32 1.98 2 3 C-0.55991624 5.01136276 -3.04590299 6.62845496 -6 8 C-4.55746343 4.63408134 -2.66735273 2.48952921 0 0 Z " fill="#6B5AE1" transform="translate(698,607)"/>
<path d="M0 0 C3.36720387 1.39332574 4.9859524 2.9789286 7 6 C6.34 6.66 5.68 7.32 5 8 C3.68 7.34 2.36 6.68 1 6 C1.33 5.01 1.66 4.02 2 3 C1.34 2.01 0.68 1.02 0 0 Z " fill="#7263EE" transform="translate(738,207)"/>
<path d="M0 0 C0.33 0.99 0.66 1.98 1 3 C-0.375 4.5 -0.375 4.5 -2 6 C-2.66 6 -3.32 6 -4 6 C-4 4.35 -4 2.7 -4 1 C-2.68 0.67 -1.36 0.34 0 0 Z " fill="#09EFEC" transform="translate(356,279)"/>
<path d="M0 0 C0.66 0.33 1.32 0.66 2 1 C-0.25 3.5625 -0.25 3.5625 -3 6 C-4.32 5.67 -5.64 5.34 -7 5 C-4.69 3.35 -2.38 1.7 0 0 Z " fill="#8150F8" transform="translate(836,473)"/>
<path d="M0 0 C0.66 0 1.32 0 2 0 C2.33 0.99 2.66 1.98 3 3 C1.68 4.32 0.36 5.64 -1 7 C-1.99 6.67 -2.98 6.34 -4 6 C-2.68 5.34 -1.36 4.68 0 4 C0 2.68 0 1.36 0 0 Z " fill="#0FDFEE" transform="translate(256,464)"/>
<path d="M0 0 C2.475 0.495 2.475 0.495 5 1 C5.33 2.32 5.66 3.64 6 5 C3.5625 4.1875 3.5625 4.1875 1 3 C0.67 2.01 0.34 1.02 0 0 Z " fill="#765BF0" transform="translate(660,275)"/>
<path d="M0 0 C1.65 1.65 3.3 3.3 5 5 C4.67 5.66 4.34 6.32 4 7 C2.35 5.68 0.7 4.36 -1 3 C-0.67 2.01 -0.34 1.02 0 0 Z " fill="#6E5DE4" transform="translate(313,588)"/>
<path d="M0 0 C0.66 0.33 1.32 0.66 2 1 C0.29374499 3.78388975 -0.47626739 4.85384206 -3.6875 5.75 C-4.8321875 5.87375 -4.8321875 5.87375 -6 6 C-4 4 -2 2 0 0 Z " fill="#02CCDA" transform="translate(390,409)"/>
<path d="M0 0 C-0.33 0.99 -0.66 1.98 -1 3 C-3.97 2.67 -6.94 2.34 -10 2 C-6.00889681 0.0044484 -4.30013434 -0.19546065 0 0 Z " fill="#6555D7" transform="translate(453,133)"/>
<path d="M0 0 C1.98 0.99 1.98 0.99 4 2 C2.68 1.67 1.36 1.34 0 1 C0 0.67 0 0.34 0 0 Z " fill="#7D68EC" transform="translate(410,781)"/>
<path d="M0 0 C1.65 0 3.3 0 5 0 C5 0.33 5 0.66 5 1 C3.35 1 1.7 1 0 1 C0 0.67 0 0.34 0 0 Z " fill="#7C75F5" transform="translate(496,230)"/>
<path d="M0 0 C0.99 0.33 1.98 0.66 3 1 C2.01 1 1.02 1 0 1 C0 0.67 0 0.34 0 0 Z " fill="#7D67EA" transform="translate(587,790)"/>
<path d="M0 0 C3 1 3 1 3 1 Z " fill="#7C67EA" transform="translate(513,797)"/>
<path d="M0 0 C3 1 3 1 3 1 Z " fill="#7F70F7" transform="translate(537,688)"/>
<path d="M0 0 C3 1 3 1 3 1 Z " fill="#7E6DF4" transform="translate(485,688)"/>
<path d="M0 0 C3 1 3 1 3 1 Z " fill="#7E6FF4" transform="translate(421,672)"/>
<path d="M0 0 C0.66 0.66 1.32 1.32 2 2 C1.34 2 0.68 2 0 2 C0 1.34 0 0.68 0 0 Z " fill="#0DDDE6" transform="translate(697,314)"/>
<path d="M0 0 C0.99 0.495 0.99 0.495 2 1 C1.01 1.495 1.01 1.495 0 2 C0 1.34 0 0.68 0 0 Z " fill="#56A3E6" transform="translate(658,277)"/>
<path d="" fill="#5F9CE7" transform="translate(0,0)"/>
<path d="M0 0 C3 1 3 1 3 1 Z " fill="#7A72F3" transform="translate(484,231)"/>
<path d="M0 0 C3 1 3 1 3 1 Z " fill="#7973F4" transform="translate(523,230)"/>
<path d="M0 0 C3 1 3 1 3 1 Z " fill="#7F6CF2" transform="translate(418,137)"/>
<path d="M0 0 C3 1 3 1 3 1 Z " fill="#7C6AF0" transform="translate(557,128)"/>
<path d="M0 0 C2 1 2 1 2 1 Z " fill="#7D67E9" transform="translate(540,796)"/>
<path d="M0 0 C2 1 2 1 2 1 Z " fill="#7D67E9" transform="translate(489,796)"/>
<path d="M0 0 C2 1 2 1 2 1 Z " fill="#7E68EC" transform="translate(550,795)"/>
<path d="M0 0 C2 1 2 1 2 1 Z " fill="#7C6AEB" transform="translate(580,791)"/>
<path d="M0 0 C2 1 2 1 2 1 Z " fill="#7B69EE" transform="translate(448,791)"/>
<path d="" fill="#7B68ED" transform="translate(0,0)"/>
<path d="M0 0 C2 1 2 1 2 1 Z " fill="#7A68ED" transform="translate(416,783)"/>
<path d="M0 0 C2 1 2 1 2 1 Z " fill="#7F6AF0" transform="translate(386,773)"/>
<path d="M0 0 C2 1 2 1 2 1 Z " fill="#7D69EA" transform="translate(302,727)"/>
<path d="" fill="#7F6BEE" transform="translate(0,0)"/>
<path d="" fill="#7E6EEE" transform="translate(0,0)"/>
<path d="" fill="#7F6DEF" transform="translate(0,0)"/>
<path d="" fill="#7E6DED" transform="translate(0,0)"/>
<path d="" fill="#7F6FED" transform="translate(0,0)"/>
<path d="" fill="#7C70EB" transform="translate(0,0)"/>
<path d="" fill="#7481ED" transform="translate(0,0)"/>
<path d="" fill="#05E5EA" transform="translate(0,0)"/>
<path d="" fill="#1EDBEB" transform="translate(0,0)"/>
<path d="" fill="#1CCEDF" transform="translate(0,0)"/>
<path d="" fill="#14D5E1" transform="translate(0,0)"/>
<path d="" fill="#0ED6E0" transform="translate(0,0)"/>
<path d="" fill="#767AF5" transform="translate(0,0)"/>
<path d="M0 0 C2 1 2 1 2 1 Z " fill="#7978F3" transform="translate(420,247)"/>
<path d="" fill="#7A76F3" transform="translate(0,0)"/>
<path d="M0 0 C2 1 2 1 2 1 Z " fill="#7A73F5" transform="translate(536,231)"/>
<path d="M0 0 C2 1 2 1 2 1 Z " fill="#7D6DF0" transform="translate(371,153)"/>
<path d="M0 0 C2 1 2 1 2 1 Z " fill="#7E6CF0" transform="translate(598,136)"/>
<path d="M0 0 C2 1 2 1 2 1 Z " fill="#7E70F2" transform="translate(425,136)"/>
<path d="M0 0 C2 1 2 1 2 1 Z " fill="#7F6AF0" transform="translate(575,131)"/>
<path d="M0 0 C2 1 2 1 2 1 Z " fill="#7F6DF2" transform="translate(458,129)"/>
<path d="" fill="#7F69EB" transform="translate(0,0)"/>
<path d="" fill="#7C68EA" transform="translate(0,0)"/>
<path d="" fill="#7D68E7" transform="translate(0,0)"/>
<path d="" fill="#7C67E9" transform="translate(0,0)"/>
<path d="" fill="#7C66EB" transform="translate(0,0)"/>
<path d="" fill="#7F69EC" transform="translate(0,0)"/>
<path d="" fill="#7D66E9" transform="translate(0,0)"/>
<path d="" fill="#7D68E8" transform="translate(0,0)"/>
<path d="" fill="#7F68E9" transform="translate(0,0)"/>
<path d="" fill="#7E68EA" transform="translate(0,0)"/>
<path d="" fill="#806AEB" transform="translate(0,0)"/>
<path d="" fill="#836CEE" transform="translate(0,0)"/>
<path d="" fill="#7F6BE7" transform="translate(0,0)"/>
<path d="" fill="#7D68EB" transform="translate(0,0)"/>
<path d="" fill="#7C66ED" transform="translate(0,0)"/>
<path d="" fill="#7E69E9" transform="translate(0,0)"/>
<path d="" fill="#7E68EA" transform="translate(0,0)"/>
<path d="" fill="#7C68ED" transform="translate(0,0)"/>
<path d="" fill="#7D68EA" transform="translate(0,0)"/>
<path d="" fill="#7C6AED" transform="translate(0,0)"/>
<path d="" fill="#7B6AEE" transform="translate(0,0)"/>
<path d="" fill="#7D68EA" transform="translate(0,0)"/>
<path d="" fill="#7B68F0" transform="translate(0,0)"/>
<path d="" fill="#7E68EA" transform="translate(0,0)"/>
<path d="" fill="#7D68EB" transform="translate(0,0)"/>
<path d="" fill="#7D68EC" transform="translate(0,0)"/>
<path d="" fill="#7C69EA" transform="translate(0,0)"/>
<path d="" fill="#7E69ED" transform="translate(0,0)"/>
<path d="" fill="#796AED" transform="translate(0,0)"/>
<path d="" fill="#7F6BE9" transform="translate(0,0)"/>
<path d="" fill="#7C69EB" transform="translate(0,0)"/>
<path d="" fill="#7A65E9" transform="translate(0,0)"/>
<path d="" fill="#7E6AEC" transform="translate(0,0)"/>
<path d="" fill="#816CF2" transform="translate(0,0)"/>
<path d="" fill="#7F6AED" transform="translate(0,0)"/>
<path d="" fill="#7C69EC" transform="translate(0,0)"/>
<path d="" fill="#7E68ED" transform="translate(0,0)"/>
<path d="" fill="#7C6CEE" transform="translate(0,0)"/>
<path d="" fill="#8370FB" transform="translate(0,0)"/>
<path d="" fill="#806EF5" transform="translate(0,0)"/>
<path d="" fill="#806BF5" transform="translate(0,0)"/>
<path d="" fill="#816DF5" transform="translate(0,0)"/>
<path d="" fill="#806EF8" transform="translate(0,0)"/>
<path d="" fill="#7F6CF4" transform="translate(0,0)"/>
<path d="" fill="#806BEF" transform="translate(0,0)"/>
<path d="" fill="#8170F6" transform="translate(0,0)"/>
<path d="" fill="#7C6AF5" transform="translate(0,0)"/>
<path d="" fill="#826AE9" transform="translate(0,0)"/>
<path d="" fill="#7F6CEE" transform="translate(0,0)"/>
<path d="" fill="#8270F5" transform="translate(0,0)"/>
<path d="" fill="#8070F5" transform="translate(0,0)"/>
<path d="" fill="#806EF6" transform="translate(0,0)"/>
<path d="" fill="#8171F6" transform="translate(0,0)"/>
<path d="" fill="#7E6CF3" transform="translate(0,0)"/>
<path d="" fill="#7E6FF4" transform="translate(0,0)"/>
<path d="" fill="#7F69EE" transform="translate(0,0)"/>
<path d="" fill="#7F6EF4" transform="translate(0,0)"/>
<path d="" fill="#7D6AEE" transform="translate(0,0)"/>
<path d="" fill="#7E6CED" transform="translate(0,0)"/>
<path d="" fill="#7F6AEC" transform="translate(0,0)"/>
<path d="" fill="#7E69EB" transform="translate(0,0)"/>
<path d="" fill="#816CEB" transform="translate(0,0)"/>
<path d="" fill="#8072F4" transform="translate(0,0)"/>
<path d="" fill="#7C6FF3" transform="translate(0,0)"/>
<path d="" fill="#7F6BF0" transform="translate(0,0)"/>
<path d="" fill="#806DEE" transform="translate(0,0)"/>
<path d="" fill="#7D6AEC" transform="translate(0,0)"/>
<path d="" fill="#7E6CEB" transform="translate(0,0)"/>
<path d="" fill="#7F6BF1" transform="translate(0,0)"/>
<path d="" fill="#7E73F3" transform="translate(0,0)"/>
<path d="" fill="#7D6DED" transform="translate(0,0)"/>
<path d="" fill="#806EF0" transform="translate(0,0)"/>
<path d="" fill="#7E76F7" transform="translate(0,0)"/>
<path d="" fill="#7E74F6" transform="translate(0,0)"/>
<path d="" fill="#8270ED" transform="translate(0,0)"/>
<path d="" fill="#7A77F3" transform="translate(0,0)"/>
<path d="" fill="#8070ED" transform="translate(0,0)"/>
<path d="" fill="#7E71EB" transform="translate(0,0)"/>
<path d="" fill="#7E70EF" transform="translate(0,0)"/>
<path d="" fill="#7C6FEB" transform="translate(0,0)"/>
<path d="" fill="#797DF0" transform="translate(0,0)"/>
<path d="" fill="#777EF3" transform="translate(0,0)"/>
<path d="" fill="#2BC9DA" transform="translate(0,0)"/>
<path d="" fill="#14D5DF" transform="translate(0,0)"/>
<path d="" fill="#14D1DD" transform="translate(0,0)"/>
<path d="" fill="#6E8EEE" transform="translate(0,0)"/>
<path d="" fill="#1BCBD8" transform="translate(0,0)"/>
<path d="" fill="#20D0DF" transform="translate(0,0)"/>
<path d="" fill="#20CDDD" transform="translate(0,0)"/>
<path d="" fill="#6A8DEF" transform="translate(0,0)"/>
<path d="" fill="#16CFD8" transform="translate(0,0)"/>
<path d="" fill="#10DDE4" transform="translate(0,0)"/>
<path d="" fill="#0FDAE0" transform="translate(0,0)"/>
<path d="" fill="#11D8E1" transform="translate(0,0)"/>
<path d="" fill="#0BDDE6" transform="translate(0,0)"/>
<path d="" fill="#6F86E7" transform="translate(0,0)"/>
<path d="" fill="#11DEE5" transform="translate(0,0)"/>
<path d="" fill="#05E3E8" transform="translate(0,0)"/>
<path d="" fill="#0BE0E8" transform="translate(0,0)"/>
<path d="" fill="#36C8EB" transform="translate(0,0)"/>
<path d="" fill="#09DDE1" transform="translate(0,0)"/>
<path d="" fill="#09DDE2" transform="translate(0,0)"/>
<path d="" fill="#0CDFE4" transform="translate(0,0)"/>
<path d="" fill="#13DAE7" transform="translate(0,0)"/>
<path d="" fill="#10DBE6" transform="translate(0,0)"/>
<path d="" fill="#11DCE7" transform="translate(0,0)"/>
<path d="" fill="#17D2E0" transform="translate(0,0)"/>
<path d="" fill="#0AE2E8" transform="translate(0,0)"/>
<path d="" fill="#0ADEE4" transform="translate(0,0)"/>
<path d="" fill="#0ADFE4" transform="translate(0,0)"/>
<path d="" fill="#08DFE2" transform="translate(0,0)"/>
<path d="" fill="#0ADBE2" transform="translate(0,0)"/>
<path d="" fill="#18D3E0" transform="translate(0,0)"/>
<path d="" fill="#17D5DF" transform="translate(0,0)"/>
<path d="" fill="#07DEE5" transform="translate(0,0)"/>
<path d="" fill="#0ADDE5" transform="translate(0,0)"/>
<path d="" fill="#0AE0E5" transform="translate(0,0)"/>
<path d="" fill="#07DDE6" transform="translate(0,0)"/>
<path d="" fill="#15D5DD" transform="translate(0,0)"/>
<path d="" fill="#12D1DB" transform="translate(0,0)"/>
<path d="" fill="#12D2DB" transform="translate(0,0)"/>
<path d="" fill="#13D3DC" transform="translate(0,0)"/>
<path d="" fill="#09DFE6" transform="translate(0,0)"/>
<path d="" fill="#06E0E5" transform="translate(0,0)"/>
<path d="" fill="#02E1E8" transform="translate(0,0)"/>
<path d="" fill="#09E0E7" transform="translate(0,0)"/>
<path d="" fill="#0CD9DE" transform="translate(0,0)"/>
<path d="" fill="#0FD1D9" transform="translate(0,0)"/>
<path d="" fill="#0BE4EB" transform="translate(0,0)"/>
<path d="" fill="#07E1E6" transform="translate(0,0)"/>
<path d="" fill="#06E1EA" transform="translate(0,0)"/>
<path d="" fill="#08E1EA" transform="translate(0,0)"/>
<path d="" fill="#0FD5DC" transform="translate(0,0)"/>
<path d="" fill="#07DADE" transform="translate(0,0)"/>
<path d="" fill="#0ADEE9" transform="translate(0,0)"/>
<path d="" fill="#0AD8DD" transform="translate(0,0)"/>
<path d="" fill="#1AD8E6" transform="translate(0,0)"/>
<path d="" fill="#3ABAE6" transform="translate(0,0)"/>
<path d="" fill="#45BDE6" transform="translate(0,0)"/>
<path d="" fill="#3CBDE6" transform="translate(0,0)"/>
<path d="" fill="#3DB7E6" transform="translate(0,0)"/>
<path d="" fill="#0BD3DC" transform="translate(0,0)"/>
<path d="" fill="#0DDAE2" transform="translate(0,0)"/>
<path d="" fill="#54A2E1" transform="translate(0,0)"/>
<path d="" fill="#52A7E6" transform="translate(0,0)"/>
<path d="" fill="#6799ED" transform="translate(0,0)"/>
<path d="" fill="#6E8BF2" transform="translate(0,0)"/>
<path d="" fill="#6B8DF0" transform="translate(0,0)"/>
<path d="" fill="#0AD6D9" transform="translate(0,0)"/>
<path d="" fill="#6C88EC" transform="translate(0,0)"/>
<path d="" fill="#6C88EE" transform="translate(0,0)"/>
<path d="" fill="#7480F4" transform="translate(0,0)"/>
<path d="" fill="#7382EF" transform="translate(0,0)"/>
<path d="" fill="#777CF4" transform="translate(0,0)"/>
<path d="" fill="#777BF7" transform="translate(0,0)"/>
<path d="" fill="#757EEE" transform="translate(0,0)"/>
<path d="" fill="#10CFDA" transform="translate(0,0)"/>
<path d="" fill="#7976F3" transform="translate(0,0)"/>
<path d="" fill="#7C76F5" transform="translate(0,0)"/>
<path d="" fill="#7E78F6" transform="translate(0,0)"/>
<path d="" fill="#7B77F2" transform="translate(0,0)"/>
<path d="" fill="#7F72F6" transform="translate(0,0)"/>
<path d="" fill="#7B7AF4" transform="translate(0,0)"/>
<path d="" fill="#23C7DB" transform="translate(0,0)"/>
<path d="" fill="#7B76F3" transform="translate(0,0)"/>
<path d="" fill="#7972F2" transform="translate(0,0)"/>
<path d="" fill="#7A73F4" transform="translate(0,0)"/>
<path d="" fill="#7F76F4" transform="translate(0,0)"/>
<path d="" fill="#7C75F4" transform="translate(0,0)"/>
<path d="" fill="#7B75F4" transform="translate(0,0)"/>
<path d="" fill="#7E76F4" transform="translate(0,0)"/>
<path d="" fill="#7D74F5" transform="translate(0,0)"/>
<path d="" fill="#36BBD9" transform="translate(0,0)"/>
<path d="" fill="#49AEE4" transform="translate(0,0)"/>
<path d="" fill="#48AEDD" transform="translate(0,0)"/>
<path d="" fill="#56A5E4" transform="translate(0,0)"/>
<path d="" fill="#5D94E5" transform="translate(0,0)"/>
<path d="" fill="#579CDF" transform="translate(0,0)"/>
<path d="" fill="#6B86E3" transform="translate(0,0)"/>
<path d="" fill="#7084EC" transform="translate(0,0)"/>
<path d="" fill="#6A88E8" transform="translate(0,0)"/>
<path d="" fill="#7C71F0" transform="translate(0,0)"/>
<path d="" fill="#7B6FEF" transform="translate(0,0)"/>
<path d="" fill="#7C71EF" transform="translate(0,0)"/>
<path d="" fill="#7D6FED" transform="translate(0,0)"/>
<path d="" fill="#7C6CF0" transform="translate(0,0)"/>
<path d="" fill="#7C6CF1" transform="translate(0,0)"/>
<path d="" fill="#7E70F1" transform="translate(0,0)"/>
<path d="" fill="#7D6FED" transform="translate(0,0)"/>
<path d="" fill="#7D6CF1" transform="translate(0,0)"/>
<path d="" fill="#7E6DF3" transform="translate(0,0)"/>
<path d="" fill="#806DEE" transform="translate(0,0)"/>
<path d="" fill="#806CEF" transform="translate(0,0)"/>
<path d="" fill="#7E6EF0" transform="translate(0,0)"/>
<path d="" fill="#7D6BF0" transform="translate(0,0)"/>
<path d="" fill="#7E6BEF" transform="translate(0,0)"/>
<path d="" fill="#7E6FED" transform="translate(0,0)"/>
<path d="" fill="#7B6BF1" transform="translate(0,0)"/>
<path d="" fill="#7F6CF0" transform="translate(0,0)"/>
<path d="" fill="#826DF3" transform="translate(0,0)"/>
<path d="" fill="#7F6BF0" transform="translate(0,0)"/>
<path d="" fill="#806CF3" transform="translate(0,0)"/>
<path d="" fill="#7E6BF2" transform="translate(0,0)"/>
<path d="" fill="#7E6BF1" transform="translate(0,0)"/>
<path d="" fill="#7F6CF2" transform="translate(0,0)"/>
<path d="" fill="#816FF2" transform="translate(0,0)"/>
<path d="" fill="#806EF0" transform="translate(0,0)"/>
<path d="" fill="#806FF3" transform="translate(0,0)"/>
</svg>
