<?xml version="1.0" encoding="UTF-8"?>
<svg version="1.1" xmlns="http://www.w3.org/2000/svg" width="192" height="192">
<path d="M0 0 C2.18341574 0.00851187 4.36420341 -0.02037972 6.54736328 -0.05200195 C28.30266255 -0.15962037 50.73399442 8.31805132 67.00048828 22.96166992 C68.31689453 24.44604492 68.31689453 24.44604492 68.31689453 26.44604492 C70.29689453 27.43604492 70.29689453 27.43604492 72.31689453 28.44604492 C72.31689453 29.10604492 72.31689453 29.76604492 72.31689453 30.44604492 C72.97689453 30.44604492 73.63689453 30.44604492 74.31689453 30.44604492 C90.89655769 47.33706325 98.90038366 70.89848615 98.76293945 94.12915039 C98.75442759 96.31256613 98.78331917 98.4933538 98.81494141 100.67651367 C98.90499519 118.85496916 93.14199775 135.18059529 83.31689453 150.44604492 C82.92115234 151.09057617 82.52541016 151.73510742 82.11767578 152.39916992 C81.24470742 153.78813073 80.2900458 155.12533963 79.31689453 156.44604492 C78.65689453 156.44604492 77.99689453 156.44604492 77.31689453 156.44604492 C77.06939453 157.00291992 76.82189453 157.55979492 76.56689453 158.13354492 C73.63605586 163.55559646 69.30574986 167.87028901 64.31689453 171.44604492 C63.65689453 171.44604492 62.99689453 171.44604492 62.31689453 171.44604492 C62.31689453 172.10604492 62.31689453 172.76604492 62.31689453 173.44604492 C40.80645694 191.91075684 13.25499999 193.7296446 -13.68310547 192.44604492 C-31.7542984 190.54495295 -54.02496496 179.71387552 -65.93310547 165.82104492 C-66.51060547 165.03729492 -67.08810547 164.25354492 -67.68310547 163.44604492 C-68.45267578 162.69709961 -69.22224609 161.9481543 -70.01513672 161.17651367 C-88.9969944 141.74998583 -94.13827055 116.64955778 -93.98979187 90.56661987 C-93.88047951 81.30241363 -92.93650531 73.16472701 -89.68310547 64.44604492 C-89.34408203 63.44057617 -89.00505859 62.43510742 -88.65576172 61.39916992 C-86.30746298 55.08132706 -83.01660958 49.4162604 -79.49560547 43.69604492 C-78.8350415 42.6209668 -78.8350415 42.6209668 -78.16113281 41.52416992 C-77.06071026 39.79257915 -75.87861296 38.11340758 -74.68310547 36.44604492 C-74.02310547 36.44604492 -73.36310547 36.44604492 -72.68310547 36.44604492 C-72.43560547 35.88916992 -72.18810547 35.33229492 -71.93310547 34.75854492 C-69.0022668 29.33649338 -64.6719608 25.02180084 -59.68310547 21.44604492 C-59.02310547 21.44604492 -58.36310547 21.44604492 -57.68310547 21.44604492 C-57.68310547 20.78604492 -57.68310547 20.12604492 -57.68310547 19.44604492 C-41.57848255 5.6217226 -20.78879088 -0.12299687 0 0 Z M-26.68310547 10.44604492 C-27.72982422 10.81987305 -28.77654297 11.19370117 -29.85498047 11.57885742 C-39.74437064 15.36895366 -49.86687107 21.21210879 -57.68310547 28.44604492 C-57.68310547 29.10604492 -57.68310547 29.76604492 -57.68310547 30.44604492 C-58.30185547 30.69354492 -58.92060547 30.94104492 -59.55810547 31.19604492 C-62.07020843 32.67375255 -62.4441789 33.88559669 -63.68310547 36.44604492 C-64.67310547 36.77604492 -65.66310547 37.10604492 -66.68310547 37.44604492 C-68.23276062 39.37647248 -69.62436954 41.27014283 -70.99560547 43.32104492 C-71.39223389 43.90821289 -71.7888623 44.49538086 -72.19750977 45.1003418 C-78.44797389 54.47667152 -82.78191718 63.51383996 -85.68310547 74.44604492 C-86.22257812 76.19788086 -86.22257812 76.19788086 -86.77294922 77.98510742 C-88.24032453 83.94481036 -88.01185628 90.03298957 -87.99560547 96.13354492 C-88.01171875 97.32399414 -88.02783203 98.51444336 -88.04443359 99.7409668 C-88.04893363 108.01653016 -86.88115002 115.47303959 -84.68310547 123.44604492 C-84.35310547 123.44604492 -84.02310547 123.44604492 -83.68310547 123.44604492 C-83.64572266 122.70741211 -83.60833984 121.9687793 -83.56982422 121.20776367 C-82.69081167 107.64339357 -79.66890194 95.44688995 -70.05810547 85.44604492 C-66.2559076 81.42497053 -64.72829467 78.4607669 -63.46826172 73.14526367 C-59.46042595 59.36708199 -48.6870999 45.54513847 -36.24560547 38.32104492 C-35.67455078 38.02069336 -35.10349609 37.7203418 -34.51513672 37.41088867 C-33.19733343 36.71686434 -31.90516514 35.97335356 -30.63232422 35.19995117 C-15.37900451 26.06963369 4.32883641 25.35949694 21.31689453 29.44604492 C31.04236646 32.14513657 38.52205371 36.07075235 46.31689453 42.44604492 C47.20892578 43.13053711 48.10095703 43.8150293 49.02001953 44.52026367 C51.49712657 46.59715784 52.70284455 48.6791021 54.31689453 51.44604492 C54.97689453 51.44604492 55.63689453 51.44604492 56.31689453 51.44604492 C56.50058594 52.27942383 56.50058594 52.27942383 56.68798828 53.12963867 C57.38501863 55.69696165 58.36850692 58.04835608 59.37939453 60.50854492 C62.83876771 70.002883 61.72160472 78.10335802 58.31689453 87.44604492 C57.65689453 87.44604492 56.99689453 87.44604492 56.31689453 87.44604492 C56.31689453 88.43604492 56.31689453 89.42604492 56.31689453 90.44604492 C55.73939453 90.73350586 55.16189453 91.0209668 54.56689453 91.31713867 C53.1459695 92.03006807 51.72874202 92.7504598 50.31689453 93.48120117 C49.65689453 93.82022461 48.99689453 94.15924805 48.31689453 94.50854492 C47.65689453 94.85014648 46.99689453 95.19174805 46.31689453 95.54370117 C38.3501485 99.13807292 29.06938229 97.95336036 20.93798828 95.48510742 C15.71748354 93.41557797 11.47314337 90.07978978 7.02783203 86.71166992 C-6.57338282 76.69904922 -21.58439022 71.99492711 -38.43310547 73.94604492 C-45.35337814 75.25835959 -51.46900292 78.21186389 -57.68310547 81.44604492 C-57.68310547 82.10604492 -57.68310547 82.76604492 -57.68310547 83.44604492 C-58.23998047 83.67291992 -58.79685547 83.89979492 -59.37060547 84.13354492 C-67.74219594 88.88498816 -73.50478125 98.5000677 -76.30419922 107.42651367 C-80.11550203 121.85689464 -77.14123918 135.70681395 -70.30419922 148.66479492 C-68.08744887 152.4679907 -65.77244242 156.28226612 -62.68310547 159.44604492 C-62.02310547 159.44604492 -61.36310547 159.44604492 -60.68310547 159.44604492 C-60.35310547 160.43604492 -60.02310547 161.42604492 -59.68310547 162.44604492 C-59.02310547 162.44604492 -58.36310547 162.44604492 -57.68310547 162.44604492 C-57.35310547 163.43604492 -57.02310547 164.42604492 -56.68310547 165.44604492 C-54.75276012 166.99563408 -52.85860609 168.38689683 -50.80810547 169.75854492 C-50.22456299 170.15444824 -49.64102051 170.55035156 -49.03979492 170.95825195 C-41.43305223 176.04593892 -33.50746473 180.8406102 -24.68310547 183.44604492 C-23.79494141 183.72448242 -22.90677734 184.00291992 -21.99169922 184.28979492 C-4.93385519 188.81064684 14.67688776 188.29201745 31.31689453 182.44604492 C32.38810547 182.0722168 33.45931641 181.69838867 34.56298828 181.31323242 C44.41556042 177.52281613 54.52788039 171.65478867 62.31689453 164.44604492 C62.31689453 163.78604492 62.31689453 163.12604492 62.31689453 162.44604492 C62.88537109 162.21272461 63.45384766 161.9794043 64.03955078 161.73901367 C79.66284659 152.86884058 86.7557319 131.58274776 91.31689453 115.44604492 C91.5884436 114.54970337 91.5884436 114.54970337 91.86547852 113.63525391 C92.84907971 108.86513391 92.5430826 103.89343048 92.55712891 99.04101562 C92.56671291 97.04634567 92.59784624 95.05181653 92.62939453 93.05737305 C92.66371429 84.44740395 91.65358938 76.73461522 89.31689453 68.44604492 C88.98689453 68.44604492 88.65689453 68.44604492 88.31689453 68.44604492 C88.27951172 69.24526367 88.24212891 70.04448242 88.20361328 70.86791992 C87.32912675 85.47698907 84.54708303 97.08018832 74.19189453 107.82104492 C70.27804995 112.03195551 68.82600691 116.01145967 67.22314453 121.46948242 C62.55994223 136.78568996 50.83308571 149.10811443 37.18017578 157.02807617 C31.76134445 159.71161747 26.05574745 161.57289527 20.31689453 163.44604492 C19.32689453 163.77604492 18.33689453 164.10604492 17.31689453 164.44604492 C-2.90067368 166.78718971 -22.55702271 164.97492778 -39.41357422 152.41088867 C-49.61126069 143.6634027 -55.58999898 134.46618776 -57.05810547 121.00854492 C-56.49735736 115.68143786 -55.10532257 110.60158193 -53.68310547 105.44604492 C-53.02310547 105.44604492 -52.36310547 105.44604492 -51.68310547 105.44604492 C-51.14685547 104.70354492 -50.61060547 103.96104492 -50.05810547 103.19604492 C-46.42329319 98.98731492 -41.89079307 97.18194079 -36.68310547 95.44604492 C-24.34757642 94.62156226 -14.98074227 96.58773741 -4.68310547 103.44604492 C-3.89935547 104.25041992 -3.11560547 105.05479492 -2.30810547 105.88354492 C8.71785205 116.64697964 23.97518467 118.73881712 38.66845703 118.59448242 C47.51107038 118.23471871 54.41396391 115.31626515 62.31689453 111.44604492 C62.31689453 110.78604492 62.31689453 110.12604492 62.31689453 109.44604492 C62.87376953 109.19854492 63.43064453 108.95104492 64.00439453 108.69604492 C72.3417327 104.18937564 77.94033121 95.48605326 80.93798828 86.60620117 C85.61205494 69.29603705 80.52001951 54.46863524 72.31689453 39.44604492 C71.65689453 38.45604492 70.99689453 37.46604492 70.31689453 36.44604492 C69.65689453 36.44604492 68.99689453 36.44604492 68.31689453 36.44604492 C67.97658203 35.61073242 67.97658203 35.61073242 67.62939453 34.75854492 C65.94139417 31.78444905 63.85012936 29.72595627 61.31689453 27.44604492 C60.65689453 27.44604492 59.99689453 27.44604492 59.31689453 27.44604492 C59.31689453 26.78604492 59.31689453 26.12604492 59.31689453 25.44604492 C37.01599997 6.30279915 0.64604271 -0.0598839 -26.68310547 10.44604492 Z M-28.68310547 40.44604492 C-29.33279297 40.81987305 -29.98248047 41.19370117 -30.65185547 41.57885742 C-42.55781021 48.91527319 -53.09478879 59.75421908 -56.68310547 73.44604492 C-55.14203125 73.04772461 -55.14203125 73.04772461 -53.56982422 72.64135742 C-52.17017188 72.28424448 -50.77042563 71.92749946 -49.37060547 71.57104492 C-48.64019043 71.38251953 -47.90977539 71.19399414 -47.15722656 70.99975586 C-43.03825693 69.95801073 -39.03379207 69.19461514 -34.80810547 68.69604492 C-29.32592797 67.79329114 -26.20219265 65.00668999 -22.09326172 61.41870117 C-13.29096271 54.2142263 -2.60747194 53.88911644 8.31689453 54.44604492 C16.80562767 55.51219741 24.95396621 58.64455145 31.31689453 64.44604492 C31.85314453 64.87916992 32.38939453 65.31229492 32.94189453 65.75854492 C36.7593272 70.44357593 37.86562507 75.38737308 37.68408203 81.29760742 C37.11280613 84.64017918 35.40872899 86.84709907 33.31689453 89.44604492 C32.82189453 90.43604492 32.82189453 90.43604492 32.31689453 91.44604492 C38.7219791 91.97980197 44.05987302 91.4558649 49.31689453 87.44604492 C49.64689453 86.45604492 49.97689453 85.46604492 50.31689453 84.44604492 C50.97689453 84.44604492 51.63689453 84.44604492 52.31689453 84.44604492 C56.06371713 76.74334954 57.19780658 71.31409866 54.56689453 63.10620117 C53.86981803 61.19929478 53.10020523 59.31917919 52.31689453 57.44604492 C51.65689453 57.44604492 50.99689453 57.44604492 50.31689453 57.44604492 C50.31689453 56.45604492 50.31689453 55.46604492 50.31689453 54.44604492 C49.65689453 54.44604492 48.99689453 54.44604492 48.31689453 54.44604492 C48.06810547 53.8659668 47.81931641 53.28588867 47.56298828 52.68823242 C42.52378178 43.62082009 31.07346668 37.92946272 21.62939453 34.63354492 C5.02562975 30.16533434 -13.73695981 31.8104941 -28.68310547 40.44604492 Z M-20.68310547 68.44604492 C-19.58353516 68.73737305 -18.48396484 69.02870117 -17.35107422 69.32885742 C-5.70595254 72.5155961 4.0887188 76.60519456 13.66064453 84.14916992 C17.28446157 86.98668704 19.65354422 87.9302917 24.31298828 87.84448242 C27.66094456 87.1788069 29.2503193 85.01360808 31.31689453 82.44604492 C31.81189453 81.95104492 31.81189453 81.95104492 32.31689453 81.44604492 C31.95294641 76.71471937 31.20823133 73.2626095 28.31689453 69.44604492 C27.65689453 69.44604492 26.99689453 69.44604492 26.31689453 69.44604492 C26.31689453 68.78604492 26.31689453 68.12604492 26.31689453 67.44604492 C24.90083463 66.65329344 23.484019 65.8618918 22.06689453 65.07104492 C21.27798828 64.63018555 20.48908203 64.18932617 19.67626953 63.73510742 C6.80236012 56.70134897 -10.20353167 57.58661451 -20.68310547 68.44604492 Z M-45.68310547 106.44604492 C-45.68310547 107.10604492 -45.68310547 107.76604492 -45.68310547 108.44604492 C-46.34310547 108.44604492 -47.00310547 108.44604492 -47.68310547 108.44604492 C-51.4094123 115.43287022 -52.00156014 122.00236435 -49.73388672 129.64526367 C-47.54786656 135.25168131 -45.43767854 139.59710482 -40.68310547 143.44604492 C-39.91353516 144.16147461 -39.91353516 144.16147461 -39.12841797 144.89135742 C-24.65721606 158.16218314 -7.48319435 160.18834371 11.32226562 159.63842773 C28.35483694 158.5442107 42.33193417 147.67233982 53.31689453 135.44604492 C57.42270741 130.28515263 59.63516742 125.86295757 61.31689453 119.44604492 C59.77582031 119.84436523 59.77582031 119.84436523 58.20361328 120.25073242 C56.80396094 120.60784536 55.40421469 120.96459038 54.00439453 121.32104492 C53.27397949 121.50957031 52.54356445 121.6980957 51.79101562 121.89233398 C47.67204599 122.93407911 43.66758114 123.6974747 39.44189453 124.19604492 C33.96337021 125.09684862 30.89409967 127.8869536 26.79345703 131.47338867 C17.80648204 138.63178358 5.83791339 139.37368306 -5.19482422 138.17260742 C-15.68086589 136.42767741 -23.69329109 131.98745379 -29.93310547 123.32104492 C-32.64184179 118.87097811 -33.11393411 115.61598867 -32.68310547 110.44604492 C-31.22068712 107.00139129 -29.34083618 104.10377563 -26.68310547 101.44604492 C-33.80899714 99.81302808 -40.24854327 101.23792281 -45.68310547 106.44604492 Z M-24.62060547 107.63354492 C-27.32749831 111.19014485 -27.32749831 111.19014485 -27.68310547 115.44604492 C-24.59418572 122.5358512 -19.10288521 128.19150304 -11.99560547 131.25854492 C-1.89148127 134.54189669 8.37213982 133.86551489 18.19189453 130.07104492 C21.20453257 128.50447314 23.11317108 127.00236413 25.31689453 124.44604492 C23.79983527 122.92898566 22.17356138 123.07454495 20.06689453 122.75854492 C13.30797896 121.48272656 7.43388878 118.49625344 1.31689453 115.44604492 C0.55119141 115.09541992 -0.21451172 114.74479492 -1.00341797 114.38354492 C-2.68310547 113.44604492 -2.68310547 113.44604492 -3.68310547 111.44604492 C-4.67310547 111.44604492 -5.66310547 111.44604492 -6.68310547 111.44604492 C-6.68310547 110.78604492 -6.68310547 110.12604492 -6.68310547 109.44604492 C-12.70580887 105.43090932 -18.12819061 102.7987679 -24.62060547 107.63354492 Z " fill="#329FDF" transform="translate(93.68310546875,-0.446044921875)"/>
</svg>
