<svg xmlns="http://www.w3.org/2000/svg" width="400" height="400"><g fill-rule="evenodd"><path d="M262.516 52.828c-.081.131-.07.364.025.517.094.153.037.44-.127.639-.165.198-.281.462-.258.588a.824.824 0 01-.013.361c-.029.074-.111.491-.182.929-.071.437-.245.867-.387.954-.142.088-.174.38-.071.649.125.326.089.428-.108.306-.175-.108-.294.011-.292.29.009.967-.303 2.339-.55 2.421-.141.047-.19.258-.109.469.08.21.005.382-.167.382-.187 0-.248.206-.151.511.089.281.043.585-.104.675-.146.091-.198.341-.115.556.082.216.017.392-.145.392-.162 0-.272.09-.242.2.154.582-.385 2.724-.645 2.564-.174-.108-.214-.056-.1.128.104.169.096.458-.018.641-.256.409-.396.982-.393 1.6.002.257-.118.467-.265.467-.152 0-.19.245-.088.566.121.382.083.507-.116.385-.186-.116-.31.093-.336.566-.038.714-.073.942-.236 1.549a5.617 5.617 0 00-.109.534c-.021.146-.187.536-.369.866-.182.33-.252.6-.155.6.096 0 .039.165-.129.367-.167.201-.229.561-.137.8.097.253.032.433-.157.433-.178 0-.256.176-.174.392.083.215.041.459-.093.542-.134.082-.176.326-.093.542.082.215.009.391-.163.391-.198 0-.247.208-.133.567.121.381.083.507-.116.384-.186-.115-.31.094-.336.567-.038.714-.073.942-.236 1.549a5.535 5.535 0 00-.109.533c-.021.147-.187.537-.369.867-.182.33-.252.6-.155.6.096 0 .039.164-.129.366-.167.201-.229.561-.137.8.097.254.032.434-.157.434-.178 0-.256.176-.174.391.083.215.041.459-.093.542-.134.083-.176.327-.093.542.082.215.009.391-.163.391-.198 0-.247.209-.133.567.121.381.083.507-.116.384-.186-.115-.31.094-.336.567-.038.714-.073.942-.236 1.549a5.662 5.662 0 00-.109.533c-.021.147-.187.537-.369.867-.182.33-.252.6-.155.6.096 0 .039.165-.129.366-.167.202-.229.562-.137.8.097.254.032.434-.157.434-.178 0-.256.176-.174.391.083.216.041.46-.093.542-.134.083-.176.327-.093.542.082.216.009.392-.163.392-.198 0-.247.208-.133.566.121.382.083.507-.116.385-.186-.116-.31.093-.336.566-.038.714-.073.942-.236 1.549a5.617 5.617 0 00-.109.534c-.021.146-.187.536-.369.866-.182.33-.252.6-.155.6.096 0 .039.165-.129.367-.167.201-.229.561-.137.8.097.253.032.433-.157.433-.178 0-.256.176-.174.392.083.215.041.459-.093.542-.134.082-.176.326-.093.542.082.215.009.391-.163.391-.198 0-.247.208-.133.567.121.381.083.507-.116.384-.186-.115-.31.094-.336.567-.038.714-.073.942-.236 1.549a5.535 5.535 0 00-.109.533c-.021.147-.187.537-.369.867-.182.33-.252.6-.155.6.096 0 .039.164-.129.366-.167.201-.229.561-.137.8.097.254.032.434-.157.434-.178 0-.256.176-.174.391.083.215.041.459-.093.542-.134.083-.176.327-.093.542.082.215.009.391-.163.391-.198 0-.247.209-.133.567.121.381.083.507-.116.384-.186-.115-.31.094-.336.567-.038.714-.073.942-.236 1.549a5.662 5.662 0 00-.109.533c-.021.147-.187.537-.369.867-.182.33-.252.6-.155.6.096 0 .039.165-.129.366-.167.202-.229.562-.137.8.097.254.032.434-.157.434-.178 0-.256.176-.174.391.083.216.041.46-.093.542-.134.083-.176.327-.093.542.082.216.009.392-.163.392-.198 0-.247.208-.133.566.121.382.083.507-.116.385-.186-.116-.31.093-.336.566-.038.714-.073.942-.236 1.549a5.617 5.617 0 00-.109.534c-.021.146-.187.536-.369.866-.182.33-.252.6-.155.6.096 0 .039.165-.129.367-.167.201-.229.561-.137.8.097.253.032.433-.157.433-.178 0-.256.176-.174.392.083.215.041.459-.093.542-.134.082-.176.326-.093.542.082.215.009.391-.163.391-.198 0-.247.208-.133.567.121.381.083.507-.116.384-.186-.115-.31.094-.336.567-.038.714-.073.942-.236 1.549a5.535 5.535 0 00-.109.533c-.021.147-.187.537-.369.867-.182.33-.252.6-.155.6.096 0 .039.164-.129.366-.167.201-.229.561-.137.8.095.249.033.434-.147.434-.192 0-.247.206-.144.533.095.299.048.533-.107.533-.152 0-.207.18-.122.4.084.221.008.4-.171.4-.178 0-.257.173-.177.383.081.211.036.421-.1.467-.136.046-.279.533-.318 1.083-.039.55-.174 1-.3 1s-.161.177-.078.392c.082.215.027.468-.123.56-.15.093-.21.333-.133.534.076.2.03.432-.104.515-.134.082-.168.346-.076.585.12.315.069.375-.187.217-.239-.148-.289-.115-.155.101.108.176.053.493-.122.705-.176.212-.25.566-.165.788.085.222.032.404-.119.404s-.202.116-.114.259c.088.142-.028.545-.257.896-.229.35-.346.821-.26 1.047.087.226.028.491-.131.589a.335.335 0 00-.118.457c.095.153.029.366-.145.474-.175.108-.328.575-.342 1.037-.013.462-.133.841-.268.841-.134 0-.163.255-.064.566.116.365.081.506-.099.395-.153-.095-.285.04-.292.3-.03 1.146-.109 1.56-.355 1.872-.145.183-.158.335-.03.337.128.003.069.108-.131.234-.199.127-.381.575-.404.996-.024.422-.137.916-.253 1.1-.116.183-.142.445-.058.581.085.137.03.325-.122.419a.324.324 0 00-.105.445c.103.167-.051.156-.396-.028-.311-.167-.565-.215-.565-.107s-.144.052-.32-.124c-.176-.176-.543-.32-.816-.32-.311 0-.424-.116-.303-.312.13-.209.047-.256-.251-.141-.244.093-.444.041-.444-.117s-.18-.218-.4-.133c-.22.084-.4.017-.4-.149 0-.167-.074-.229-.165-.138-.091.091-.34-.01-.555-.225-.214-.214-.5-.321-.634-.238-.135.083-.246.012-.246-.159s-.18-.242-.4-.158c-.22.085-.4.051-.4-.074 0-.254-1.02-.635-1.533-.573-.183.022-.333-.105-.333-.282 0-.178-.081-.243-.179-.145-.098.099-.399-.021-.668-.265-.269-.243-.568-.365-.664-.269-.095.095-.346.03-.557-.145-.212-.175-.626-.355-.921-.4-.295-.045-.883-.329-1.306-.63-.422-.301-.889-.472-1.037-.381-.148.091-.268.039-.268-.117 0-.155-.216-.282-.48-.282s-.624-.144-.8-.32c-.176-.176-.32-.238-.32-.138 0 .158-1.199-.353-2.73-1.163-.255-.135-.645-.246-.867-.246-.222 0-.403-.12-.403-.266 0-.147-.24-.267-.534-.267-.293 0-.533-.127-.533-.282 0-.156-.128-.204-.283-.108-.156.097-.529-.046-.828-.317-.3-.271-.622-.468-.717-.438-.427.136-1.351-.273-1.193-.529.11-.177.009-.22-.269-.113-.244.094-.443.041-.443-.117 0-.157-.18-.217-.4-.133-.22.085-.4.03-.4-.12 0-.151-.107-.209-.237-.128-.13.08-.383-.032-.563-.248-.18-.217-.434-.329-.564-.248-.13.08-.236.006-.236-.165s-.18-.242-.4-.158c-.22.085-.4.052-.4-.073 0-.255-1.02-.636-1.534-.574-.183.023-.333-.091-.333-.253s-.12-.22-.267-.129c-.146.09-.266.037-.266-.118s-.292-.282-.648-.282c-.356 0-.83-.182-1.052-.405-.223-.223-.502-.383-.619-.357-.118.026-.575-.11-1.015-.303-.44-.193-.92-.381-1.066-.418-.711-.181-2.25-.94-2.401-1.184-.093-.152-.281-.206-.418-.122-.136.084-.248.019-.248-.145 0-.164-.121-.223-.268-.132-.148.091-.598-.064-1-.346-.403-.282-.882-.459-1.065-.395-.184.065-.334-.019-.334-.187 0-.167-.12-.23-.266-.14-.147.091-.267.031-.267-.133s-.11-.23-.245-.147c-.135.084-.434-.037-.665-.268-.23-.23-.54-.344-.688-.253-.148.091-.269.039-.269-.116 0-.156-.307-.283-.682-.283-.382 0-.611-.116-.52-.263.094-.151-.013-.196-.25-.105-.229.087-.414.019-.414-.152 0-.171-.112-.242-.249-.158-.136.085-.324.03-.418-.122-.094-.151-.272-.212-.397-.135-.125.077-.386-.018-.582-.21-.314-.312-1.05-.704-1.621-.865-.11-.031-.29-.086-.4-.121a1.027 1.027 0 00-.4-.034c-.11.018-.2-.078-.2-.213s-.39-.329-.867-.431c-.476-.102-1.004-.296-1.172-.432-.169-.135-.588-.3-.933-.366-.344-.066-.667-.243-.717-.392-.049-.149-.2-.203-.334-.12-.134.083-.244.004-.244-.176s-.074-.253-.165-.162c-.091.091-.34-.01-.555-.224-.214-.215-.491-.327-.616-.25-.125.077-.299.023-.387-.119-.088-.143-.337-.192-.552-.109-.215.082-.391.01-.391-.161s-.12-.237-.267-.146c-.147.09-.267.03-.267-.134s-.106-.232-.236-.152c-.13.081-.389-.038-.576-.263-.187-.225-.501-.347-.697-.272-.197.076-.357.035-.357-.09 0-.241-.853-.583-1.722-.69-.288-.036-.565-.194-.618-.351-.052-.157-.287-.211-.521-.121-.307.117-.365.064-.209-.19.144-.233.116-.289-.084-.166-.166.103-.574.036-.907-.149-.334-.185-.684-.314-.78-.288-.096.027-.321-.128-.5-.343-.178-.215-.55-.391-.825-.391-.276 0-.501-.133-.501-.296 0-.162-.18-.226-.4-.141-.22.084-.4.061-.4-.051 0-.223-1.873-.988-2.2-.9-.11.03-.2-.066-.2-.212 0-.147-.3-.267-.667-.267-.366 0-.666-.12-.666-.267 0-.146-.216-.266-.48-.266s-.624-.144-.8-.32c-.176-.176-.32-.233-.32-.127 0 .107-.39-.014-.867-.269-.477-.254-.927-.47-1-.48-.384-.051-1.867-.826-1.867-.974 0-.095-.186-.245-.414-.332-.279-.107-.351-.052-.22.171.106.182-.038.136-.32-.101-.282-.238-.662-.378-.846-.311-.183.066-.333-.017-.333-.184 0-.168-.12-.231-.267-.14-.146.091-.266.031-.266-.133s-.111-.23-.246-.147c-.134.083-.405-.009-.602-.206-.196-.196-.506-.307-.688-.247-.182.061-.331-.026-.331-.194 0-.167-.12-.23-.267-.14-.146.091-.266.031-.266-.133s-.12-.224-.267-.133c-.147.09-.267.025-.267-.146 0-.171-.176-.244-.392-.161-.216.083-.547-.004-.736-.193-.189-.189-.509-.288-.711-.221-.221.074-.295.004-.184-.175.117-.19.034-.241-.229-.139-.241.092-.414.016-.414-.181 0-.187-.079-.261-.176-.164-.096.096-.336.041-.533-.122s-.358-.214-.358-.112-.314-.061-.698-.363c-.384-.302-.804-.484-.933-.404-.13.08-.236.006-.236-.165s-.171-.246-.38-.165c-.209.08-.524-.027-.699-.239-.176-.211-.538-.384-.804-.384-.267 0-.561-.122-.653-.271-.092-.149-.279-.202-.415-.117-.137.084-.249.05-.249-.076 0-.23-1.77-.971-1.953-.818-.054.045-.296-.082-.539-.284-.243-.201-.443-.261-.445-.133-.002.128-.104.075-.227-.118-.122-.193-.39-.377-.596-.408a2.21 2.21 0 01-.706-.265c-.184-.114-.336-.111-.338.008-.002.119-.092.096-.2-.051-.299-.405-2.556-1.567-2.328-1.199.109.177-.096.128-.456-.108-.36-.235-.735-.348-.833-.249-.098.098-.179.031-.179-.149 0-.179-.11-.258-.245-.175-.135.083-.42-.024-.635-.238-.214-.215-.464-.316-.555-.225-.09.091-.165.018-.165-.162 0-.179-.127-.248-.283-.151-.156.096-.516-.035-.8-.293-.284-.257-.517-.37-.517-.251s-.21.036-.466-.185c-.782-.671-1.248-.885-.996-.456.153.259.063.241-.292-.058-.282-.237-.662-.377-.846-.311-.183.067-.333-.016-.333-.184 0-.167-.11-.236-.245-.153-.135.084-.434-.037-.665-.268-.23-.23-.559-.333-.729-.227-.207.127-.238.074-.092-.162.157-.253.098-.307-.206-.191-.233.09-.566-.008-.74-.218-.174-.21-.423-.315-.553-.235-.13.08-.237.006-.237-.165s-.176-.243-.392-.16c-.216.083-.561-.019-.768-.226-.207-.206-.45-.301-.541-.211-.091.091-.165.02-.165-.157 0-.178-.15-.298-.334-.268-.575.095-1.803-.344-1.651-.59.08-.13-.041-.164-.268-.077-.228.088-.414.02-.414-.152 0-.171-.106-.245-.236-.165-.13.081-.384-.031-.564-.248-.18-.216-.43-.33-.556-.252-.126.077-.512-.044-.858-.271-.346-.226-.692-.349-.769-.271-.078.077-.293-.042-.478-.266-.186-.223-.563-.406-.838-.406-.276 0-.501-.117-.501-.259 0-.142-.18-.189-.4-.104-.22.084-.4.034-.4-.111 0-.246-.814-.628-1.497-.702-.164-.018-.464-.166-.667-.329-.42-.337-1.602-.761-1.903-.682-.11.03-.2-.067-.2-.213 0-.147-.24-.267-.534-.267-.294 0-.982-.24-1.529-.533-.548-.294-1.147-.534-1.333-.534-.185 0-.337-.14-.337-.311 0-.171-.079-.232-.175-.135-.097.096-.337.041-.534-.122s-.358-.219-.358-.124-.39-.035-.866-.289c-.477-.254-.957-.437-1.067-.407-.11.03-.2-.072-.2-.227 0-.156-.12-.209-.267-.118-.146.091-.266.031-.266-.133s-.12-.224-.267-.134c-.147.091-.267.031-.267-.133s-.127-.219-.283-.123c-.156.096-.516-.035-.8-.292-.284-.257-.517-.37-.517-.252 0 .119-.21.036-.466-.184-.782-.672-1.248-.886-.996-.457.153.259.063.241-.292-.057-.282-.238-.662-.378-.846-.311-.183.066-.333-.017-.333-.184 0-.168-.11-.237-.245-.153-.135.083-.434-.038-.665-.268-.23-.231-.559-.333-.729-.228-.207.128-.238.074-.092-.162.158-.255.098-.307-.217-.186-.239.092-.51.046-.601-.102a.413.413 0 00-.453-.174c-.252.084-.347.486-.491 2.066-.031.345-.575 3.28-.914 4.934-.222 1.08-.439 2.421-.518 3.2-.045.44-.111.8-.146.8-.036 0-.091.3-.123.666-.032.367-.133.967-.224 1.334a23.351 23.351 0 00-.328 1.733c-.088.587-.209 1.367-.267 1.733-.059.367-.17 1.267-.247 2-.077.734-.321 2.294-.543 3.467-.395 2.097-.588 3.211-.737 4.267-.042.293-.14.653-.218.8-.078.146-.121.536-.095.866.026.33-.054.6-.178.6s-.183.36-.132.8c.051.44.009.8-.094.8s-.21.39-.237.867c-.061 1.062-.243 2.467-.319 2.467-.031 0-.075.3-.097.666-.023.367-.105.787-.182.934-.078.146-.12.536-.094.866.025.33-.055.6-.179.6-.123 0-.183.36-.131.8.051.44.008.8-.096.8-.104 0-.168.36-.141.8.026.44-.033.8-.132.8s-.202.39-.229.867c-.074 1.283-.213 2.143-.434 2.667-.107.256-.128.642-.046.858.083.215.047.456-.081.534-.127.079-.198.446-.157.815.04.37-.014.726-.121.793-.107.066-.162.422-.121.792.04.37-.038.741-.174.825a.29.29 0 00-.096.398c.084.135.013.937-.156 1.782-.17.845-.304 1.746-.298 2.003.006.256-.085.466-.204.466-.118 0-.173.36-.122.8.052.44-.008.8-.133.8-.124 0-.184.36-.133.8.051.44-.003.8-.121.8-.117 0-.229.39-.249.867-.053 1.307-.189 2.167-.393 2.495-.102.162-.135.55-.075.861.059.311.012.626-.106.699-.118.072-.181.435-.14.805.04.37-.033.673-.164.673s-.196.36-.145.8c.051.44.005.8-.104.8-.108 0-.154.36-.103.8.051.44-.016.8-.149.8s-.197.36-.141.8c.056.44-.003.8-.129.8-.127 0-.174.36-.105.8.078.495.01.8-.178.8-.199 0-.243.277-.128.8.116.53.071.8-.133.8-.205 0-.25.271-.134.8.12.544.073.8-.145.8-.215 0-.268.266-.161.8.1.501.05.8-.134.8-.183 0-.233.299-.133.8.088.44.059.8-.065.8s-.183.36-.132.8c.051.44-.013.8-.143.8-.13 0-.185.21-.123.467.063.257-.069 1.427-.294 2.6-.397 2.078-.589 3.178-.743 4.267-.042.293-.159.666-.26.828-.101.162-.135.55-.075.861.06.311-.005.636-.144.722-.138.086-.199.448-.134.806.065.357-.008.649-.162.649-.158 0-.228.346-.161.8.064.44.026.8-.084.8-.111 0-.156.36-.1.8.056.44.009.8-.105.8-.182 0-.229.382-.307 2.521-.011.287-.131.656-.268.82-.136.164-.198.557-.137.873.061.317.014.635-.103.708-.118.072-.182.434-.141.804.041.37-.025.733-.146.808-.12.074-.186.435-.146.801.04.366-.028.665-.152.665-.123 0-.183.36-.131.8.051.44.008.8-.096.8-.104 0-.168.36-.141.8.026.44-.025.8-.113.8s-.178.39-.201.867c-.037.8-.206 2.002-.514 3.667-.281 1.518-.386 2.298-.383 2.853.001.323-.116.66-.261.75-.145.089-.193.442-.108.784.086.342.043.691-.096.777-.139.086-.195.459-.124.829.071.37.015.673-.123.673s-.199.36-.134.8c.064.44.009.8-.124.8s-.248.33-.256.734a11.133 11.133 0 01-.212 1.666 66.244 66.244 0 00-.318 1.6 49.942 49.942 0 01-.452 2.267c-.096.44-.234 1.4-.305 2.133-.116 1.19-.211 1.869-.526 3.734a75.789 75.789 0 01-.602 3.2c-.097.44-.199 1.1-.228 1.466-.028.367-.08.667-.116.667-.035 0-.103.36-.149.8-.047.44-.161 1.22-.254 1.733a26.235 26.235 0 00-.226 1.467c-.032.293-.137.66-.234.815-.097.155-.139.515-.093.8.045.285.01.638-.078.785-.089.147-.182.567-.208.933-.057.804-.475 3.499-.776 5a54.28 54.28 0 00-.489 2.734 571.121 571.121 0 01-.567 3.6c-.046.293-.169.953-.273 1.466a28.239 28.239 0 00-.243 1.334c-.029.22-.127.64-.216.933-.09.293-.243 1.133-.342 1.867-.234 1.751-.39 2.784-.545 3.6a26.21 26.21 0 00-.223 1.466c-.135 1.121-.382 2.663-.724 4.534-.161.88-.332 1.9-.378 2.266a34.803 34.803 0 01-.259 1.6c-.095.514-.21 1.234-.256 1.6-.138 1.097-.405 2.778-.552 3.478-.157.746-.291 1.525-.525 3.056-.267 1.754-.415 2.637-.534 3.2a64.73 64.73 0 00-.51 2.733l-.277 1.668-.267 1.6a89.272 89.272 0 01-.644 3.465c-.134.66-.316 1.74-.404 2.4-.087.66-.209 1.455-.27 1.767a57.267 57.267 0 00-.275 1.6c-.09.568-.228 1.393-.306 1.833-.079.44-.199 1.22-.266 1.734a90.926 90.926 0 01-.797 4.8c-.07.366-.187 1.026-.26 1.466l-.267 1.6-.266 1.6a73.65 73.65 0 00-.246 1.6c-.061.44-.172 1.16-.246 1.6-.074.44-.202 1.271-.285 1.845a71.056 71.056 0 01-.27 1.734 93.24 93.24 0 00-.28 1.755c-.087.586-.688 4.126-1.334 7.866-1.584 9.171-1.566 8.563-.257 8.715 1.735.201 2.112.264 2.533.423.22.083.58.155.8.159 1.14.024 3.418.362 4.024.598.379.147.799.247.933.222.134-.026.303-.019.377.014.073.034.493.105.933.159 1.456.178 2.393.321 2.933.448 1.125.264 2.694.548 3.334.603.366.031.666.086.666.121 0 .072 1.478.275 2.578.354.391.028.791.131.889.229.098.098.468.126.823.062.354-.065.644-.01.644.12s.366.194.813.142c.49-.057.749.01.65.169-.102.167.2.207.816.109.58-.092.915-.054.824.095-.09.144.245.206.792.145.521-.057.88.004.799.136-.082.131.209.198.645.147.437-.051.794.015.794.145 0 .131.303.205.673.164.37-.04.728.015.795.123.066.108.483.154.927.103.443-.052.805.007.805.131s.27.204.6.178c.33-.026.72.016.866.093.146.077.617.167 1.046.199.999.077 2.469.3 3.488.53.44.1 1.13.187 1.533.195.404.007.734.122.734.255s.36.189.8.124c.44-.064.8-.03.8.077 0 .106.36.169.8.138.44-.03.8.027.8.127 0 .101.36.152.8.115.44-.037.8.03.8.15 0 .121.39.217.866.216a11.86 11.86 0 011.667.131c.44.075 1.16.192 1.6.261.44.069 1.1.199 1.467.288.922.226 2.43.445 3.054.446.287 0 .651.107.809.239.159.131.524.201.812.155.289-.046.645-.01.791.08.147.09.567.182.934.204.366.022.666.062.666.088 0 .152 3.168.593 4.067.566.33-.01.6.09.6.222 0 .133.36.184.8.115.44-.07.8-.02.8.11s.36.184.8.119c.44-.064.8-.014.8.113s.39.246.867.265a10.96 10.96 0 011.666.218c.44.101 1.13.2 1.534.221.403.02.733.13.733.243 0 .114.36.164.8.113.44-.051.8-.014.8.082s.21.188.467.205c.466.03 1.773.212 3.533.491 1.833.29 2.807.43 3.267.468.256.021.466.117.466.214 0 .096.393.167.872.157.479-.01 1.063.056 1.296.145.338.13.405.006.333-.614-.05-.428.019-.778.152-.778s.196-.36.141-.8c-.056-.44-.003-.8.117-.8.121 0 .177-.36.126-.8-.051-.44.026-.8.172-.8.149 0 .203-.352.125-.8-.082-.464-.025-.8.134-.8.153 0 .219-.315.148-.708-.071-.39-.05-.836.046-.992.096-.155.195-.587.22-.958.051-.764.321-2.505.541-3.486.081-.36.2-1.016.264-1.456.122-.827.259-1.69.489-3.068l.266-1.6.267-1.6a889.225 889.225 0 01.548-3.266c.082-.476.153-1.1.158-1.387.006-.286.118-.65.249-.809.132-.158.202-.524.155-.812-.046-.288.014-.648.134-.8.119-.152.179-.512.133-.8-.046-.288.035-.674.18-.856.145-.183.201-.573.124-.867-.077-.294-.017-.535.132-.535.151 0 .22-.357.155-.8-.065-.44-.021-.8.098-.8.118 0 .173-.36.122-.8-.051-.44.009-.8.133-.8.125 0 .185-.36.133-.8-.051-.44.009-.8.134-.8.124 0 .184-.36.133-.8-.051-.44.009-.8.133-.8.125 0 .185-.36.134-.8-.051-.44.003-.8.12-.8.118 0 .176-.33.131-.733-.046-.403-.012-.853.075-1 .088-.147.178-.567.2-.933.023-.367.07-.667.105-.667.034 0 .081-.3.103-.667.022-.366.122-.793.222-.948.1-.155.145-.515.099-.8-.045-.285-.008-.638.083-.785.09-.147.188-.567.217-.933a24.59 24.59 0 01.204-1.6c.082-.514.15-1.204.15-1.534 0-.33.108-.6.241-.6.132 0 .183-.36.114-.8-.069-.44-.009-.8.133-.8.143 0 .203-.36.134-.8-.07-.44-.02-.8.11-.8s.184-.36.119-.8c-.064-.44-.004-.8.134-.8.137 0 .197-.36.133-.8-.069-.47.002-.8.173-.8.18 0 .229-.303.13-.8-.1-.501-.05-.8.133-.8.184 0 .234-.299.134-.8-.101-.501-.051-.8.133-.8.181 0 .235-.294.14-.767-.085-.423-.027-.846.128-.942.155-.096.214-.351.132-.566-.083-.215-.06-.601.051-.858.111-.257.177-.725.146-1.041-.03-.316.077-.656.238-.756.161-.1.221-.41.132-.69-.089-.279-.066-.659.052-.844.117-.185.235-.636.261-1.002.06-.833.265-2.14.76-4.867.073-.403.181-1.063.24-1.467.114-.79.375-2.419.575-3.599.069-.403.189-1.123.268-1.6.079-.477.189-1.107.243-1.401.286-1.523.474-2.716.497-3.133.013-.257.1-.467.191-.467.092 0 .146-.36.119-.8-.026-.44.034-.8.134-.8.099 0 .159-.36.133-.8-.026-.44.034-.8.133-.8.1 0 .16-.36.134-.8-.027-.44.05-.8.171-.8.12 0 .176-.36.125-.8-.051-.44.006-.8.126-.8s.174-.358.118-.796c-.055-.438-.009-.853.102-.922.112-.069.18-.401.15-.737-.029-.336.044-.735.162-.887.119-.152.178-.512.132-.8-.046-.288-.01-.644.081-.791.091-.147.189-.567.218-.933.029-.367.123-1.087.21-1.6.086-.514.165-1.204.176-1.534.01-.33.117-.6.237-.6.121 0 .174-.36.118-.8-.055-.44.005-.8.134-.8s.189-.36.133-.8c-.056-.44.004-.8.133-.8s.189-.36.134-.8c-.058-.452.022-.8.183-.8.164 0 .234-.338.166-.8-.064-.44-.011-.8.12-.8.13 0 .179-.359.11-.798-.069-.44-.015-.867.12-.951.135-.083.192-.442.128-.797-.064-.355-.004-.715.133-.8.138-.085.199-.437.137-.781-.063-.345-.034-.708.064-.806.098-.098.199-.498.223-.889.043-.687.187-1.706.48-3.378.077-.44.157-.98.177-1.2.1-1.095 1.205-7.066 1.307-7.066.027 0 .08-.36.119-.8.038-.44.101-.8.139-.8.038 0 .101-.36.14-.8.038-.44.098-.8.133-.8s.09-.3.123-.667c.033-.367.15-.877.26-1.133.111-.257.134-.644.051-.86-.243-.632.594-.916 1.447-.49.413.206 1.028.428 1.365.493.337.065.653.239.703.387.049.148.319.27.601.27.281 0 .511.116.511.258 0 .142.18.189.4.105.22-.085.4-.035.4.11 0 .246.814.628 1.497.702.163.018.463.166.667.329.42.338 1.602.761 1.902.682.11-.029.2.087.2.258s.079.232.176.136c.096-.097.336-.042.533.121.197.164.358.218.358.12 0-.097.51.116 1.133.475.624.358 1.524.733 2 .832.477.099.867.298.867.442 0 .144.112.192.248.108.137-.085.324-.032.416.117.092.149.39.271.663.271.272 0 .537.127.589.282.052.154.332.325.622.379.291.054.529.117.529.139 0 .023.237.085.528.14.291.054.571.225.623.381.052.155.204.215.338.132.134-.083.244-.017.244.147 0 .164.128.22.283.123.156-.096.516.035.8.293.285.257.517.37.517.251s.21-.036.467.185c.782.671 1.247.885.995.456-.13-.22-.001-.182.314.093.294.257.623.378.732.269.109-.109.313.005.452.255.141.251.43.386.647.302.216-.083.393-.005.393.173 0 .183.18.255.414.165.27-.104.348-.051.223.15-.128.207-.044.253.253.139.244-.094.443-.054.443.088s.24.258.534.258c.293 0 .533.117.533.259 0 .142.18.189.4.104.22-.084.4-.034.4.111 0 .284.987.677 1.533.61.184-.022.334.071.334.207 0 .253.789.571 1.719.693.286.038.564.2.618.361.053.16.289.218.524.128.281-.108.361-.058.235.146-.121.195-.052.255.189.163.208-.08.546.021.749.224.204.204.536.315.738.248.203-.068.294-.002.202.146-.135.218.636.529 1.746.704.102.016.336.18.52.363.183.183.549.333.813.333.264 0 .48.117.48.259 0 .142.18.189.4.104.22-.084.4-.034.4.111 0 .246.814.628 1.497.702.164.018.464.162.667.32.42.328 1.306.727 1.703.768.146.015.536.176.866.358.33.182.6.248.6.146 0-.101.21.006.467.239.257.232.557.428.668.436.612.043 1.532.377 1.532.555 0 .199.879.577 1.497.645.164.017.464.16.667.317.345.266 2.073 1.025 2.369 1.041.074.004.284.103.467.219.183.117.333.135.333.041s.402.077.893.381c.491.303.971.473 1.066.377.096-.096.175-.034.175.137s.213.311.474.311c.26 0 .74.187 1.066.415.326.228.593.324.593.213 0-.111.144-.057.32.119.176.176.526.32.778.32s.5.126.551.281c.052.155.332.325.623.379.29.055.528.117.528.14 0 .022.238.085.528.139.291.054.571.226.623.381.052.156.204.215.338.132.135-.083.244-.016.244.148 0 .164.128.219.284.123.156-.097.486-.012.733.187.706.568 2.183 1.339 2.183 1.139 0-.1.18-.032.4.151.22.182.4.238.4.124 0-.114.261.022.58.301.318.279.492.359.386.178-.131-.223-.059-.279.22-.172.228.088.414.279.414.426 0 .146.18.197.4.113.22-.085.4-.03.4.12 0 .151.12.2.267.11.147-.091.267-.038.267.117 0 .156.09.268.2.251.599-.095 1.143.066 1.002.295-.094.151.013.196.25.105.228-.087.414-.04.414.105 0 .284.987.677 1.534.611.183-.023.333.07.333.206 0 .253.789.571 1.72.693.286.038.563.2.617.361.054.161.289.219.524.129.281-.108.362-.059.236.145-.121.196-.052.256.188.163.209-.08.546.021.75.225.203.203.535.315.738.247.233-.078.296-.005.171.197-.121.194-.057.29.163.245.198-.041.63.076.96.258.33.183.6.249.6.148s.21.006.466.238c.257.233.558.429.668.437.612.043 1.532.376 1.532.555 0 .198.88.577 1.498.644.163.018.463.161.666.317.475.366 2.048.992 2.184.869.057-.052.302.07.545.271.242.202.441.282.441.179 0-.104.401.06.892.363.491.304.971.474 1.067.378.096-.096.174-.035.174.137 0 .171.213.311.474.311s.741.186 1.067.415c.326.228.592.324.592.213 0-.111.144-.058.32.118.176.176.526.32.778.32s.5.127.552.282c.051.154.331.325.622.379.291.054.528.117.528.139 0 .023.238.085.529.14.29.054.571.225.623.381.051.155.204.215.338.132.134-.083.244-.017.244.147 0 .164.127.22.283.123.156-.096.486-.012.733.187.706.569 2.184 1.34 2.184 1.139 0-.099.18-.031.4.151.22.183.4.239.4.125 0-.114.26.021.579.301.318.279.492.359.386.177-.13-.223-.059-.278.221-.171.227.087.414.279.414.425 0 .147.18.198.4.114.22-.085.4-.031.4.12s.12.2.266.109c.147-.09.267-.037.267.118s.09.268.2.251c.6-.095 1.144.065 1.002.295-.094.151.014.196.251.105.227-.088.414-.04.414.105 0 .284.987.677 1.533.61.183-.022.333.071.333.207 0 .253.79.571 1.72.693.286.038.564.2.617.361.054.16.29.218.524.128.282-.108.362-.058.236.146-.121.195-.052.255.188.163.209-.08.597.071.862.336s.52.452.568.416c.251-.196.893-.028.754.197-.094.151.014.195.251.104.227-.087.414-.04.414.106 0 .284.987.676 1.533.61.183-.022.333.071.333.207 0 .252.79.57 1.72.693.286.037.564.2.617.36.054.161.29.219.524.129.307-.117.365-.064.209.19-.144.232-.116.289.084.166.166-.103.574-.036.907.149.334.185.666.357.739.382l.734.24c.33.108.6.276.6.374 0 .099.253.198.563.222.31.023.769.229 1.021.457.253.228.539.335.637.236.098-.098.179-.025.179.162s.172.273.382.193c.211-.081.422-.031.469.11.047.142.443.323.878.402.436.079.855.226.932.327.384.508 1.081.273 1.48-.499.237-.458.364-.901.281-.984-.083-.083-.017-.312.146-.509.163-.197.192-.36.064-.362-.128-.002-.074-.104.12-.227.194-.123.395-.631.446-1.129.142-1.362.348-2.12.688-2.53.169-.203.237-.551.152-.773-.085-.222-.026-.403.132-.403s.222-.169.143-.374c-.079-.206-.063-.454.035-.552.18-.18.204-.304.278-1.423.022-.339.14-.554.263-.479.221.137.264-.032.338-1.311.022-.369.146-.737.277-.818a.286.286 0 00.084-.395c-.084-.137-.013-.248.158-.248s.242-.18.157-.4c-.084-.22-.067-.4.038-.4.106 0 .201-.27.213-.6.028-.786.196-1.363.453-1.554.114-.084.234-.534.266-.999.033-.466.132-.847.219-.847.088 0 .17-.352.182-.782.012-.429.241-1.115.507-1.523.289-.442.342-.653.13-.522-.28.172-.273.056.03-.544.212-.419.332-.913.267-1.096-.066-.183-.004-.333.136-.333.141 0 .256-.314.256-.697 0-.384.105-.774.234-.867.129-.093.276-.53.327-.97.051-.44.192-.861.313-.937.121-.075.284-.615.361-1.2.147-1.113.375-2.121.63-2.796a1.74 1.74 0 00.092-.76c-.033-.198.053-.29.191-.205.139.085.252-.145.252-.511 0-.916.62-3.057.886-3.057.119 0 .17-.24.114-.534-.057-.293.023-.533.177-.533s.211-.18.126-.4c-.084-.22-.041-.4.097-.4.137 0 .18-.182.095-.403-.085-.222-.004-.585.18-.807.183-.222.262-.475.173-.564-.088-.088-.002-.475.192-.86s.3-.849.234-1.033c-.065-.183.019-.333.188-.333.192 0 .239-.213.127-.567-.099-.312-.073-.5.058-.419.131.081.248-.054.259-.3.04-.869.391-2.296.638-2.594.138-.166.172-.381.076-.478-.097-.096-.028-.175.153-.175.208 0 .267-.197.16-.534-.104-.326-.048-.533.144-.533.172 0 .244-.18.16-.4-.085-.22-.063-.4.047-.4.111 0 .217-.21.236-.467.084-1.153.209-1.666.403-1.666.116 0 .21-.42.21-.934 0-.513.128-.933.285-.933.169 0 .211-.23.104-.567-.099-.312-.072-.5.059-.419.131.081.253-.054.272-.3.09-1.177.213-1.647.432-1.647.131 0 .171-.176.088-.392-.082-.215-.041-.459.093-.542.134-.082.176-.326.093-.542-.082-.215-.047-.391.079-.391.125 0 .247-.316.269-.702.022-.385.142-.775.267-.866.267-.196.413-.738.42-1.565.003-.33.092-.6.198-.6.106 0 .204-.388.218-.862.013-.473.145-.901.292-.95.147-.049.201-.263.12-.476-.082-.212-.015-.546.148-.743.162-.196.322-.674.354-1.063.032-.388.165-.706.296-.706.13 0 .168-.18.083-.4-.084-.22-.029-.4.123-.4s.209-.213.126-.473c-.082-.26.071-.89.342-1.4.271-.51.439-1.081.374-1.27-.065-.188.03-.521.211-.739.182-.219.258-.47.169-.559-.088-.088-.002-.475.192-.86s.3-.849.234-1.033c-.065-.183.019-.333.188-.333.192 0 .239-.213.127-.567-.099-.312-.073-.5.058-.419.131.081.248-.054.259-.3.042-.914.397-2.303.673-2.636.157-.19.187-.345.067-.345-.121 0-.085-.134.079-.299.165-.164.236-.464.159-.666-.078-.203.004-.368.182-.368.179 0 .255-.18.171-.4-.085-.22-.063-.4.047-.4.111 0 .217-.21.236-.467.084-1.153.209-1.666.403-1.666.116 0 .21-.42.21-.934 0-.513.128-.933.285-.933.169 0 .211-.23.104-.567-.099-.312-.072-.5.059-.419.131.081.253-.054.272-.3.09-1.177.213-1.647.432-1.647.131 0 .171-.176.088-.392-.082-.215-.041-.459.093-.542.134-.082.176-.326.093-.542-.082-.215-.047-.391.079-.391.125 0 .247-.316.269-.702.022-.385.142-.775.267-.866.267-.196.413-.738.42-1.565.003-.33.092-.6.198-.6.106 0 .204-.388.218-.862.013-.473.145-.901.292-.95.147-.049.201-.263.12-.476-.082-.212-.015-.546.148-.743.162-.196.322-.674.354-1.063.032-.388.165-.706.296-.706.13 0 .168-.18.083-.4-.084-.22-.029-.4.123-.4s.209-.213.126-.473c-.082-.26.072-.89.344-1.4.271-.51.461-1.137.422-1.393-.039-.256.04-.534.176-.618a.292.292 0 00.094-.401c-.084-.137-.059-.399.055-.582.214-.342.366-.877.417-1.467.016-.183.125-.333.242-.333.118 0 .149-.17.069-.378-.08-.209.057-.688.304-1.065.248-.377.378-.873.29-1.102-.104-.272-.052-.35.15-.225.202.125.253.047.148-.227-.088-.23-.085-.493.007-.585.092-.091.195-.53.229-.975.034-.444.206-.982.383-1.196.178-.213.364-.873.414-1.466.05-.593.181-1.222.29-1.396.189-.303.239-.465.428-1.377.045-.216.157-.468.248-.56.092-.092.095-.355.007-.584-.115-.3-.059-.356.197-.197.257.158.312.103.197-.197-.088-.23-.078-.5.022-.599.1-.1.196-.292.215-.427.018-.134.063-.274.1-.311.072-.071.193-.749.309-1.733.039-.33.135-.6.214-.6.079 0 .162-.316.184-.702.022-.385.144-.775.27-.866.126-.091.245-.496.264-.9.02-.404.128-.944.241-1.2a7.18 7.18 0 00.261-.665c.031-.11.086-.29.121-.4.131-.411.189-.75.228-1.349.025-.376.156-.545.336-.434.199.123.237-.003.116-.384-.117-.369-.065-.567.149-.567.181 0 .25-.079.153-.175-.096-.097-.026-.36.156-.585.232-.286.237-.352.016-.22-.2.12-.169-.104.084-.612.22-.44.325-.922.233-1.071-.092-.148-.043-.27.107-.27.151 0 .205-.18.121-.4-.085-.22-.025-.4.133-.4s.218-.18.133-.4c-.084-.22-.024-.4.134-.4s.217-.182.132-.403c-.085-.222-.017-.57.151-.772.168-.203.287-.471.265-.597a1.036 1.036 0 01.024-.428c.035-.11.095-.32.131-.467a1.42 1.42 0 01.118-.333c.029-.037.105-.476.169-.976.065-.499.236-1.05.38-1.224.144-.174.183-.395.087-.491-.097-.097-.04-.176.127-.176.166 0 .237-.17.157-.378-.08-.208.033-.658.25-1 .218-.342.392-.965.387-1.385-.004-.42.157-.869.359-.996.201-.128.252-.234.113-.237-.139-.002-.119-.138.046-.303.164-.164.235-.466.157-.67-.079-.204.001-.544.177-.756.175-.211.242-.51.147-.663-.094-.153-.063-.278.07-.278s.252-.369.265-.819c.013-.45.143-.963.29-1.14.147-.177.31-.644.363-1.038.053-.394.172-.793.265-.886.094-.093.098-.357.01-.587-.115-.298-.059-.355.193-.2.239.149.289.116.155-.101-.108-.176-.053-.493.122-.704.176-.212.256-.552.177-.756-.078-.204-.007-.506.157-.67.165-.165.211-.299.103-.299s-.047-.27.135-.6c.182-.33.361-1.01.397-1.51.037-.501.162-.981.279-1.067.116-.086.243-.311.282-.499l.159-.8c.049-.252.226-.792.394-1.2.167-.409.291-.829.276-.934-.089-.595.065-1.403.246-1.291.192.119.322-.378.375-1.433.01-.22.138-.55.282-.733.145-.183.159-.335.031-.337-.128-.003-.08-.102.108-.221.187-.119.386-.627.441-1.129.134-1.237.324-1.972.678-2.635.164-.305.225-.673.137-.817-.089-.143-.053-.261.08-.261s.252-.369.265-.82c.013-.452.224-1.127.468-1.5.245-.373.318-.6.162-.504-.155.096-.117-.144.085-.534.202-.389.304-.873.227-1.075-.078-.202.005-.367.183-.367s.254-.18.17-.4c-.085-.22-.041-.4.096-.4.138 0 .181-.18.097-.4-.085-.22-.014-.4.157-.4s.238-.119.148-.264c-.089-.145.027-.662.258-1.15.231-.488.448-1.269.481-1.736.032-.467.124-.849.203-.849.078-.001.172-.383.208-.85.035-.467.191-1.002.346-1.188.155-.187.193-.483.084-.659-.113-.184-.085-.25.068-.156.155.096.28-.239.301-.806.02-.533.129-1.038.243-1.122.113-.084.239-.448.28-.808.04-.361.16-.721.266-.8.107-.08.228-.561.269-1.068.041-.508.198-.999.347-1.091.15-.093.242-.278.204-.411-.089-.316.306-2.294.527-2.64.199-.311.234-.466.28-1.218.018-.302.129-.489.247-.417.117.073.241-.283.275-.79.034-.507.197-1.249.362-1.649.164-.401.314-.848.332-.995.109-.894.495-2 .697-2 .13 0 .17-.174.088-.387a.937.937 0 01.063-.729c.278-.45.334-1.294.076-1.134-.112.069-.282-.001-.377-.156-.096-.155-.394-.212-.663-.127-.269.085-.567.028-.663-.127-.095-.155-.286-.213-.422-.128-.137.084-.248.013-.248-.158s-.15-.254-.334-.184c-.183.07-.633.005-1-.145-.366-.15-.866-.248-1.109-.219-.244.029-.518-.067-.609-.215-.091-.147-.361-.192-.601-.1-.273.105-.369.06-.257-.12.113-.183-.017-.237-.357-.148-.293.077-.533.012-.533-.143s-.238-.237-.528-.181c-.29.056-.599-.013-.685-.153a.297.297 0 00-.406-.101c-.136.084-.248.018-.248-.147 0-.179-.215-.232-.533-.131-.306.097-.534.048-.534-.115 0-.157-.09-.271-.2-.253a.774.774 0 01-.333-.021c-.123-.048-.718-.192-1.526-.369-.179-.039-.4-.146-.492-.238-.092-.092-.326-.106-.52-.032s-.661-.067-1.038-.314c-.378-.248-.864-.382-1.08-.299-.217.083-.466.034-.554-.108-.088-.143-.264-.196-.39-.118-.126.078-.31.012-.409-.147-.098-.159-.342-.226-.543-.149-.2.077-.436.023-.525-.12-.088-.142-.263-.195-.39-.117-.126.078-.302.025-.39-.117-.088-.143-.336-.192-.552-.109-.215.082-.391.042-.391-.089s-.382-.267-.849-.303c-.467-.035-.994-.185-1.172-.333-.178-.147-.425-.249-.551-.227a.813.813 0 01-.361-.011c-.202-.078-.844-.231-1.734-.413-.44-.089-.84-.276-.889-.415-.049-.139-.205-.182-.345-.095-.141.087-.433.01-.65-.17-.218-.18-.473-.25-.567-.155-.095.095-.456-.013-.802-.24-.345-.226-.742-.342-.88-.256-.138.085-.58-.06-.982-.323-.558-.365-.674-.383-.49-.077.208.345.179.349-.21.034-.248-.202-.451-.268-.451-.147 0 .121-.135.085-.299-.08-.165-.164-.465-.236-.667-.158-.202.078-.368.001-.368-.17s-.125-.233-.278-.139c-.153.095-.448.032-.655-.14-.207-.172-.502-.236-.655-.141-.153.095-.278.025-.278-.155 0-.179-.071-.256-.158-.169-.086.086-.616-.004-1.176-.202-.56-.198-1.089-.288-1.176-.202-.086.087-.157.01-.157-.169 0-.18-.112-.258-.248-.174-.137.085-.327.027-.423-.128-.095-.155-.404-.209-.685-.12s-.511.045-.511-.097c0-.143-.24-.197-.533-.121-.319.084-.533.009-.533-.186 0-.181-.179-.258-.4-.173-.22.084-.4.041-.4-.097 0-.137-.175-.183-.388-.101a.931.931 0 01-.733-.068c-.353-.22-.884-.373-1.479-.424-.184-.016-.334-.122-.334-.236 0-.114-.24-.16-.533-.104-.293.056-.533-.007-.533-.14 0-.134-.18-.174-.4-.09-.22.085-.4.013-.4-.159 0-.188-.206-.248-.511-.151-.281.089-.59.035-.685-.12-.096-.155-.278-.218-.404-.14-.127.078-.306.02-.398-.129-.092-.149-.52-.271-.951-.271-.432 0-.785-.106-.785-.236 0-.129-.24-.298-.533-.375-.294-.076-.468-.032-.387.099.14.226-.498.075-1.08-.255-.289-.164-.872-.314-1.4-.36-.183-.016-.333-.122-.333-.235 0-.114-.24-.161-.533-.105-.294.057-.534.01-.534-.104 0-.114-.15-.219-.333-.235-.954-.081-2.238-.409-2.525-.645-.179-.147-.719-.316-1.2-.374-.481-.058-1.025-.127-1.208-.152-.184-.025-.334-.152-.334-.283 0-.131-.111-.169-.248-.085-.136.085-.327.027-.422-.128-.096-.155-.394-.212-.663-.127-.269.085-.567.028-.663-.127-.095-.155-.286-.213-.422-.128-.137.084-.248.012-.248-.16 0-.183-.224-.255-.534-.174-.293.076-.533.041-.533-.079s-.21-.184-.467-.143c-.256.041-.586.004-.733-.083-.147-.088-.564-.2-.928-.25-.364-.05-.748-.229-.853-.399-.104-.17-.275-.223-.38-.118-.104.104-.351.056-.548-.107-.197-.164-.358-.22-.358-.124 0 .095-.33.01-.733-.187-.403-.198-.958-.31-1.232-.248-.299.067-.429 0-.326-.167.103-.166-.033-.239-.336-.18-.279.054-.835-.072-1.235-.279-.399-.208-.826-.316-.947-.241-.121.075-.297.012-.391-.139-.093-.152-.273-.212-.4-.134-.126.078-.302.026-.39-.117-.088-.143-.336-.192-.552-.109-.215.082-.391.043-.391-.088 0-.132-.382-.268-.849-.304-.467-.035-1.002-.191-1.188-.346-.187-.155-.457-.209-.6-.121-.143.088-.336.037-.43-.115-.093-.151-.273-.211-.4-.133-.126.078-.302.025-.39-.117-.088-.143-.336-.192-.552-.109-.215.082-.391.047-.391-.079 0-.308-1.298-.367-1.484-.067" fill="#6c74f4"/><path d="M266.8 53.6c.091.147.428.258.749.248.563-.018.565-.027.051-.248-.734-.315-.995-.315-.8 0m-5.116 2.333a6.45 6.45 0 01-.274.667c-.06.11.005.2.143.2.138 0 .309-.3.379-.667.147-.767-.003-.888-.248-.2m15.383.594c0 .116.296.267.658.337.362.069.604.037.538-.07-.177-.287-1.196-.514-1.196-.267m9.47 2.68c.067.108.42.253.784.323.365.069.608.038.542-.07-.067-.108-.42-.253-.784-.323-.365-.07-.608-.038-.542.07m-25.826.171c-.098.098-.17.428-.161.733.016.511.038.504.273-.083.261-.653.207-.969-.112-.65m-1.719 6.085c-.158.732-.244 1.374-.191 1.427.161.161.706-2.105.588-2.443-.06-.173-.239.285-.397 1.016m62.208 3.604c.091.146.428.258.749.248.563-.018.565-.027.051-.248-.734-.316-.995-.316-.8 0m20.83 8.908c-.089.353-.239.863-.335 1.134-.119.336-.086.407.104.224.291-.278.736-2 .518-2-.069 0-.198.289-.287.642m-.714 2.471c-.149.391-.231.901-.183 1.133.048.232.22-.089.382-.712.33-1.269.215-1.511-.199-.421m-.658 2.354l-.25.8c-.068.22-.022.4.103.4.126 0 .281-.36.346-.8.124-.846.011-1.073-.199-.4m-.504 1.762c-.384 1.14-.637 2.426-.436 2.215.291-.305.843-2.305.681-2.467-.066-.066-.176.048-.245.252m-1.056 3.747c-.233 1.165-.048 1.221.299.091.158-.513.193-.933.078-.933s-.284.379-.377.842m-1.587 5.735c-.098.098-.17.428-.161.734.016.511.038.504.273-.083.261-.653.207-.969-.112-.651m-242.127 7.877c-.08.337-.209 1.212-.287 1.946-.114 1.072-.065.971.245-.514.353-1.681.388-2.878.042-1.432m9.949 1.153c0 .062.36.298.8.526.44.228.8.302.8.166 0-.136-.36-.373-.8-.526-.44-.153-.8-.228-.8-.166m229.334.994c0 .038-.118.48-.262.982-.147.511-.155.804-.019.665.301-.308.665-1.715.443-1.715-.089 0-.162.031-.162.068m-224.683 1.136c.285.218.675.396.867.396.595 0 .387-.202-.518-.504-.793-.264-.822-.255-.349.108m9.216 3.876c.982.666 1.476.825.837.268-.346-.301-.766-.546-.933-.544-.167.002-.124.126.096.276m2.4 1.037c0 .111.48.391 1.067.621.586.231 1.066.372 1.066.313 0-.058-.48-.337-1.066-.621-.587-.283-1.067-.424-1.067-.313M331.858 114l-.25.8c-.068.22-.022.4.103.4.126 0 .281-.36.346-.8.124-.846.011-1.073-.199-.4m-239.182 4.2c-.06.183-.245 1.233-.412 2.333-.167 1.1-.37 2.24-.45 2.534-.081.293-.054.445.06.337.215-.204 1.187-5.537 1.01-5.537-.056 0-.149.15-.208.333m237.645 1.2c-.195 1.015-.039 1.057.301.08.156-.447.184-.813.062-.813s-.285.33-.363.733m-170.207 7.406c.282.214.579.323.659.243.167-.167-.51-.643-.906-.636-.147.002-.036.179.247.393m.953.268c0 .062.36.298.8.526.44.228.8.302.8.166 0-.136-.36-.373-.8-.526-.44-.153-.8-.228-.8-.166m167.073.221l-.265.838c-.069.22-.066.4.007.4.204 0 .683-1.39.532-1.541-.074-.074-.198.062-.274.303m-157.207 4.031c0 .157 1.494.941 1.787.939.117-.001-.147-.24-.587-.532-.783-.518-1.2-.66-1.2-.407m154.586 5.141c-.272.485-.475 1.783-.239 1.533.276-.293.67-1.733.474-1.733-.067 0-.173.09-.235.2m-136.452 2.74c0 .232 1.035.647 1.2.481.052-.051-.197-.231-.553-.399-.356-.168-.647-.205-.647-.082m7.648 3.214c.419.42 2.487 1.336 2.479 1.099-.004-.103-.634-.463-1.4-.8-.766-.337-1.252-.471-1.079-.299m5.152 2.379c.22.142.58.258.8.258.355 0 .355-.028 0-.258-.22-.142-.58-.258-.8-.258-.356 0-.356.028 0 .258m120.569 2.445a4.48 4.48 0 01-.209.933c-.133.377-.097.42.156.186.181-.166.275-.586.209-.933-.066-.347-.136-.431-.156-.186m-234.815 1.222c-.411 2.383-.433 2.621-.193 2.066.273-.63.658-3.066.485-3.066-.066 0-.198.45-.292 1m122.246-.277c.22.082.64.259.933.394.525.241.525.239.016-.169-.285-.228-.705-.406-.934-.394-.359.018-.361.041-.015.169m111.93 1.592c-.068.12-.195.578-.282 1.018-.159.796-.157.795.243-.098.349-.778.38-1.523.039-.92m-106.864.505c0 .18 1.386.683 1.518.551.06-.06-.257-.237-.704-.393-.448-.156-.814-.227-.814-.158m2.248 1.052c.282.214.579.324.658.244.168-.168-.509-.644-.906-.637-.146.002-.035.179.248.393m101.683 8.843c-.068.12-.195.578-.283 1.018-.158.796-.157.795.243-.098.349-.778.381-1.523.04-.92m-.913 3.218a6.41 6.41 0 01-.275.667c-.059.11.006.2.144.2.138 0 .309-.3.379-.667.146-.767-.004-.888-.248-.2m-3.032 10.637c-.147.387-.207.764-.133.838.121.121.252-.16.565-1.208.189-.635-.165-.331-.432.37M82.687 178.06c-.177 1.14-.379 2.313-.45 2.607-.099.41-.073.44.113.133.282-.465.953-4.519.777-4.695-.065-.065-.263.815-.44 1.955m230.583 1.799c-.07.362-.038.604.07.537.286-.177.513-1.196.266-1.196-.116 0-.267.296-.336.659m-4.653 16.608a6.286 6.286 0 01-.274.666c-.059.11.005.2.144.2.138 0 .308-.3.378-.666.147-.767-.003-.888-.248-.2m-2.498 8.77c-.147.387-.207.764-.133.838.121.121.252-.16.565-1.208.189-.635-.165-.331-.432.37m-1.649 5.822c-.07.362-.038.604.07.537.286-.177.513-1.196.266-1.196-.116 0-.267.296-.336.659M171.2 222.362c0 .274.808.653.994.466.065-.065-.132-.252-.438-.416-.306-.164-.556-.186-.556-.05m3.2 1.472c.366.214.716.339.777.278.166-.166-.034-.292-.777-.49l-.667-.178.667.39m-15.202 1.522c-.001.061-.238 1.484-.527 3.161-.289 1.678-.468 3.108-.398 3.178.07.07.128.077.129.016.001-.061.238-1.484.527-3.162.289-1.678.468-3.108.398-3.178-.07-.069-.128-.077-.129-.015m140.619 2.311a6.286 6.286 0 01-.274.666c-.059.11.005.2.144.2.138 0 .308-.3.378-.666.147-.767-.003-.888-.248-.2M193.6 232.013c.888.603 1.333.794 1.333.573 0-.129-.305-.373-.679-.543-.834-.38-1.194-.397-.654-.03m103.2 6.254c-.187.668-.279 1.276-.204 1.351.074.075.276-.423.448-1.107.408-1.618.199-1.827-.244-.244m-90.4-.673c0 .219 1.322.64 1.488.474.05-.051-.264-.226-.698-.39-.435-.164-.79-.202-.79-.084m6.933 2.901c0 .274.808.653.995.466.065-.065-.133-.252-.438-.415-.307-.164-.557-.187-.557-.051m82.578 1.016c-.098.098-.17.428-.161.733.016.511.038.505.273-.083.261-.653.207-.968-.112-.65m-66.578 5.817c0 .055.36.279.8.499.44.219.8.3.8.179s-.36-.346-.8-.499c-.44-.154-.8-.234-.8-.179m6.4 2.818c.888.603 1.334.794 1.334.573 0-.128-.306-.373-.68-.543-.834-.38-1.194-.397-.654-.03m57.207 1.949l-.265.838c-.069.22-.066.4.007.4.204 0 .683-1.39.532-1.541-.074-.074-.198.062-.274.303m-52.407.166c0 .219 1.322.64 1.488.473.051-.05-.263-.226-.698-.39-.434-.164-.79-.201-.79-.083m6.934 2.901c0 .274.807.653.994.466.065-.065-.132-.252-.438-.416-.306-.164-.556-.186-.556-.05m42.852 6.105c-.277.494-.453 1.698-.227 1.559.136-.084.3-.514.364-.956.118-.8.076-.983-.137-.603m-26.852.727c0 .055.36.28.8.499.44.22.8.3.8.179s-.36-.345-.8-.499c-.44-.153-.8-.234-.8-.179m6.549 2.931c.284.215.697.391.917.39.232 0 .12-.161-.266-.382-.877-.501-1.31-.506-.651-.008m1.451.562c0 .18 1.385.683 1.517.551.06-.06-.256-.237-.704-.393-.447-.156-.813-.227-.813-.158m-119.169 1.625a4.385 4.385 0 01-.204.8c-.134.379-.098.42.158.183.182-.168.274-.528.204-.8-.07-.272-.141-.355-.158-.183m126.047 1.459c.482.309.943.496 1.024.415.081-.081-.218-.336-.664-.566-1.167-.604-1.391-.509-.36.151m-126.314.141a4.385 4.385 0 01-.204.8c-.133.379-.098.42.159.183.182-.168.273-.528.203-.8s-.141-.355-.158-.183m127.702.337c0 .109.3.335.667.502.367.168.666.217.665.11-.002-.107-.302-.333-.667-.503-.366-.169-.665-.218-.665-.109m1.6.69c0 .049.372.274.827.501.625.312.753.324.525.048-.273-.328-1.352-.767-1.352-.549m-129.569.573a4.371 4.371 0 01-.203.8c-.134.379-.099.42.158.183.182-.168.274-.528.204-.8-.07-.272-.142-.355-.159-.183m135.616 1.262c-.121.315-.345.425-.649.32-.38-.133-.37-.089.057.241.562.435 1.115-.025.88-.732-.059-.176-.183-.102-.288.171m-135.882.338a4.385 4.385 0 01-.204.8c-.134.379-.098.42.158.183.182-.168.274-.528.204-.8-.07-.272-.141-.355-.158-.183m-.267 1.6a4.385 4.385 0 01-.204.8c-.133.379-.098.42.159.183.182-.168.273-.528.203-.8s-.141-.355-.158-.183m-.698 3.821c-.1.316-.122.634-.048.707.073.074.215-.125.315-.44s.122-.634.049-.707c-.074-.073-.216.125-.316.44m-.266 1.6c-.1.316-.122.634-.049.707.073.074.215-.125.315-.44s.122-.634.049-.707c-.073-.073-.215.125-.315.44m-.267 1.6c-.1.316-.122.634-.049.707.074.074.216-.125.316-.44s.122-.634.048-.707c-.073-.073-.215.125-.315.44m-.489 3.111c-.098.098-.17.428-.161.734.016.511.038.504.273-.083.261-.653.207-.969-.112-.651m-.267 1.6c-.097.098-.17.428-.16.734.015.511.037.504.272-.083.261-.653.207-.969-.112-.651m-.266 1.6c-.098.098-.17.428-.161.734.015.511.037.504.272-.083.261-.653.207-.969-.111-.651M148 292.4c0 .367.046.667.102.667.056 0 .16-.3.23-.667.07-.367.024-.667-.102-.667-.127 0-.23.3-.23.667m-.267 1.6c0 .367.046.667.103.667.056 0 .159-.3.229-.667.07-.367.024-.667-.102-.667s-.23.3-.23.667m-.933 5.733c-.1.316-.122.634-.049.707.074.074.216-.125.316-.44s.122-.634.048-.707c-.073-.073-.215.125-.315.44m-4 24c-.1.316-.122.634-.049.707.074.074.216-.125.316-.44s.122-.634.048-.707c-.073-.073-.215.125-.315.44m-.267 1.6c-.1.316-.122.634-.048.707.073.074.215-.125.315-.44s.122-.634.049-.707c-.074-.073-.216.125-.316.44m-.266 1.6c-.1.316-.122.634-.049.707.073.074.215-.125.315-.44s.122-.634.049-.707c-.073-.073-.215.125-.315.44m-.267 1.6c-.1.316-.122.634-.049.707.074.074.216-.125.316-.44s.122-.634.048-.707c-.073-.073-.215.125-.315.44m-.267 1.6c-.1.316-.122.634-.048.707.073.074.215-.125.315-.44s.122-.634.049-.707c-.074-.073-.216.125-.316.44m-.266 1.6c-.1.316-.122.634-.049.707.073.074.215-.125.315-.44s.122-.634.049-.707c-.073-.073-.215.125-.315.44M63.12 334.94c.278.25 2.652.609 2.406.364-.103-.103-.735-.271-1.403-.372-.669-.102-1.12-.098-1.003.008m77.615 1.193c-.07.367-.024.667.102.667s.23-.3.23-.667c0-.366-.046-.666-.103-.666-.056 0-.159.3-.229.666M69.333 336c.22.142.58.258.8.258.356 0 .356-.028 0-.258-.22-.142-.58-.258-.8-.258-.355 0-.355.028 0 .258m71.135 1.733c-.07.367-.024.667.102.667.127 0 .23-.3.23-.667 0-.366-.046-.666-.102-.666-.056 0-.16.3-.23.666m-17.779 7.162c.061.052.531.172 1.044.266.657.121.815.094.534-.091-.362-.237-1.843-.401-1.578-.175m16.244 2.289c0 .192-.173.273-.4.186-.22-.084-.4-.037-.4.105s.173.258.385.258c.434 0 .818-.486.575-.729-.088-.088-.16-.007-.16.18" fill="#6474f4"/></g></svg>