<svg width="32" height="32" viewBox="0 0 32 32" fill="none" xmlns="http://www.w3.org/2000/svg">
<path d="M18.7071 19.4065C18.2765 19.7827 17.7915 20.1093 17.3065 20.4112C16.3315 21.0151 15.2723 21.4852 14.1637 21.7822C13.5945 21.9356 11.6891 22.386 9.28868 21.9406C3.65643 20.9012 -0.243582 15.3333 1.45896 9.68621C1.84005 8.4192 2.5379 7.29572 3.39412 6.26133C4.81951 4.53899 6.33398 3.59368 7.10111 3.11855C7.91279 2.61868 8.70467 2.22769 9.44706 1.92578C2.97838 10.394 8.62548 14.586 10.0608 15.4669C10.0657 15.4669 10.0707 15.4669 10.0707 15.4719C10.14 15.5214 10.2092 15.561 10.2835 15.5956C10.3033 15.6055 10.3132 15.6105 10.328 15.6204C10.3577 15.6352 10.3726 15.6451 10.3726 15.6451L10.4023 15.66C11.9316 16.3529 13.55 16.828 15.203 17.1051C16.0296 17.2487 16.866 17.3378 17.7024 17.3873C18.3013 17.4219 19.0288 17.4417 19.2466 18.1296C19.4099 18.6394 19.0783 19.0947 18.7071 19.4115V19.4065Z" fill="url(#paint0_linear_2660_14401)"/>
<path d="M23.7654 4.22073C23.7654 4.61172 23.6268 4.99281 23.3793 5.29471C23.023 5.73025 22.4785 5.85893 21.9688 6.02225C21.8104 6.07175 21.6322 6.13114 21.4442 6.19548C18.7963 7.04675 16.0742 8.32366 16.0742 8.32366C14.6191 8.97201 13.2036 9.70945 11.897 10.6102C10.9814 11.2437 9.5412 12.1148 9.27889 13.2977C9.25414 13.4164 9.08587 14.1638 9.47686 14.8418C9.62039 15.0893 9.81836 15.3021 10.0559 15.4654C8.62064 14.5894 2.97354 10.3974 9.44221 1.92922C9.71442 1.82034 9.97673 1.72135 10.2341 1.62732C11.3774 1.21653 12.6988 0.81069 14.1885 0.488989C15.0992 0.291019 15.9653 0.14749 16.7721 0.0386067C17.8065 -0.0999724 18.8507 0.137592 19.7268 0.701807C20.7909 1.3848 21.85 2.0678 22.9141 2.75575C23.4239 3.08735 23.7604 3.60207 23.7604 4.22073H23.7654Z" fill="url(#paint1_linear_2660_14401)"/>
<path d="M13.2929 12.5957C13.7235 12.2195 14.2085 11.8929 14.6935 11.591C15.6685 10.9872 16.7277 10.517 17.8363 10.22C18.4055 10.0666 20.3109 9.61624 22.7113 10.0617C28.3436 11.101 32.2436 16.6689 30.5411 22.316C30.16 23.583 29.4621 24.7065 28.6059 25.7409C27.1805 27.4632 25.666 28.4086 24.8989 28.8837C24.0872 29.3836 23.2953 29.7746 22.553 30.0765C29.0216 21.6083 23.3745 17.4163 21.9393 16.5353C21.9343 16.5353 21.9294 16.5353 21.9294 16.5303C21.8601 16.4809 21.7908 16.4413 21.7165 16.4066C21.6967 16.3967 21.6868 16.3918 21.672 16.3819C21.6423 16.367 21.6275 16.3571 21.6275 16.3571L21.5978 16.3423C20.0684 15.6494 18.45 15.1743 16.797 14.8971C15.9705 14.7536 15.134 14.6645 14.2976 14.615C13.6987 14.5803 12.9712 14.5605 12.7534 13.8726C12.5901 13.3628 12.9217 12.9075 13.2929 12.5907V12.5957Z" fill="url(#paint2_linear_2660_14401)"/>
<path d="M8.23413 27.7799C8.23413 27.3889 8.37271 27.0078 8.62017 26.7059C8.97652 26.2703 9.52094 26.1417 10.0307 25.9783C10.1891 25.9288 10.3673 25.8695 10.5553 25.8051C13.2032 24.9538 15.9253 23.6769 15.9253 23.6769C17.3804 23.0286 18.7958 22.2911 20.1024 21.3904C21.0181 20.7569 22.4583 19.8858 22.7206 18.7029C22.7453 18.5841 22.9136 17.8368 22.5226 17.1588C22.3791 16.9113 22.1811 16.6985 21.9436 16.5352C23.3789 17.4112 29.0259 21.6032 22.5573 30.0714C22.2851 30.1803 22.0228 30.2792 21.7654 30.3733C20.6221 30.7841 19.3007 31.1899 17.8109 31.5116C16.9003 31.7096 16.0342 31.8531 15.2274 31.962C14.193 32.1006 13.1487 31.863 12.2727 31.2988C11.2086 30.6158 10.1495 29.9328 9.0854 29.2448C8.57563 28.9132 8.23908 28.3985 8.23908 27.7799H8.23413Z" fill="url(#paint3_linear_2660_14401)"/>
<defs>
<linearGradient id="paint0_linear_2660_14401" x1="2.63688" y1="5.78125" x2="16.3364" y2="21.9604" gradientUnits="userSpaceOnUse">
<stop stop-color="#A7A9AC"/>
<stop offset="1" stop-color="#262627"/>
</linearGradient>
<linearGradient id="paint1_linear_2660_14401" x1="20.286" y1="0.0732519" x2="6.5865" y2="12.6048" gradientUnits="userSpaceOnUse">
<stop stop-color="#A7A9AC"/>
<stop offset="1" stop-color="#262627"/>
</linearGradient>
<linearGradient id="paint2_linear_2660_14401" x1="29.3978" y1="29.4627" x2="18.6134" y2="9.64099" gradientUnits="userSpaceOnUse">
<stop stop-color="#BAE5D8"/>
<stop offset="1" stop-color="#31A37D"/>
</linearGradient>
<linearGradient id="paint3_linear_2660_14401" x1="7.39771" y1="28.1758" x2="20.5182" y2="23.9046" gradientUnits="userSpaceOnUse">
<stop stop-color="#BAE5D8"/>
<stop offset="1" stop-color="#31A37D"/>
</linearGradient>
</defs>
</svg>
